<?xml version="1.0" standalone="no"?>
<!DOCTYPE svg PUBLIC "-//W3C//DTD SVG 1.1//EN" "http://www.w3.org/Graphics/SVG/1.1/DTD/svg11.dtd" >
<svg xmlns="http://www.w3.org/2000/svg" xmlns:xlink="http://www.w3.org/1999/xlink" version="1.1">
<metadata></metadata>
<defs>
<font id="stkaitiregular" horiz-adv-x="2048" vert-adv-y="2048" >
<font-face units-per-em="2048" ascent="1638" descent="-410" />
<missing-glyph horiz-adv-x="512" />
<glyph horiz-adv-x="0" vert-adv-y="0" />
<glyph horiz-adv-x="682" />
<glyph unicode=" " horiz-adv-x="512" vert-adv-y="2664" />
<glyph unicode="!" horiz-adv-x="448" vert-adv-y="2664" d="M125 70q0 43 29.5 72.5t72.5 29.5t73 -29.5t30 -72.5t-30 -73t-73 -30t-72.5 30t-29.5 73zM137 1192q0 49 25.5 78.5t64.5 29.5t64.5 -29.5t25.5 -78.5q0 -43 -20 -178q-10 -63 -16 -154l-37 -575h-37l-33 575q-4 80 -16 154q-20 135 -21 178z" />
<glyph unicode="&#x22;" horiz-adv-x="831" vert-adv-y="2664" d="M133 1266q0 121 100 120q98 0 99 -120q0 -45 -23 -166l-55 -297h-43l-55 297q-23 117 -23 166zM502 1266q0 121 100 120q98 0 98 -120q0 -45 -22 -166l-55 -297h-43l-56 297q-23 117 -22 166z" />
<glyph unicode="#" horiz-adv-x="1366" vert-adv-y="2664" d="M94 367v88h232l84 405h-316v88h334l88 418h88l-88 -418h455l88 418h88l-88 -418h213v-88h-232l-84 -405h316v-88h-334l-84 -414h-90l88 414h-459l-84 -414h-90l86 414h-211zM412 457h456l86 403h-456z" />
<glyph unicode="$" horiz-adv-x="917" vert-adv-y="2664" d="M86 150q0 29 16.5 44t38.5 15q45 0 95 -59q41 -53 92 -82l8 561q-131 61 -190.5 140t-59.5 214q0 109 66.5 189.5t193.5 115.5l2 101h39l-2 -93q14 4 72 4q37 0 82 -6l2 95h39l-2 -101q53 -10 99 -29.5t88 -53.5t51 -51t9 -36q0 -35 -18.5 -52t-42.5 -17q-39 0 -76 53 q-57 84 -110 112l-9 -557q129 -80 195.5 -172t66.5 -184q0 -242 -270 -315l-4 -265h-43l4 256q-43 -10 -82 -10q-47 0 -67 2l-4 -248h-43l4 254q-94 14 -167 65.5t-73 109.5zM172 985q0 -70 42 -116t124 -91l8 457q-80 -18 -127 -91t-47 -159zM369 45q47 -20 100 -20 q24 0 49 4l10 499q-72 45 -151 84zM379 758q90 -43 151 -78l9 553q-37 14 -82 14q-31 0 -72 -6zM561 37q70 20 112 90t42 168q-1 101 -148 207z" />
<glyph unicode="%" horiz-adv-x="1685" vert-adv-y="2664" d="M74 940q0 154 73 257t179 103q115 0 186.5 -94t71.5 -256q0 -150 -77 -248t-179 -98q-106 0 -180 93.5t-74 242.5zM188 928q0 -143 33 -216t111 -73q76 0 107.5 70.5t31.5 222.5q0 182 -25.5 256t-113.5 74q-98 0 -121 -93.5t-23 -240.5zM367 -68l858 1371h73l-866 -1371 h-65zM1104 303q0 143 71.5 251t190.5 108q115 0 184.5 -103t69.5 -242q0 -145 -73.5 -247.5t-184.5 -102.5q-109 0 -183.5 97.5t-74.5 238.5zM1221 289q0 -143 31.5 -216t107.5 -73q82 0 113.5 68.5t31.5 224.5q0 172 -25.5 251t-111.5 79q-106 0 -126.5 -100.5 t-20.5 -233.5z" />
<glyph unicode="&#x26;" horiz-adv-x="1492" vert-adv-y="2664" d="M55 326q0 264 391 391q-96 111 -121.5 169t-25.5 109q0 96 77 159t204 63q121 0 191.5 -61.5t70.5 -162.5q0 -178 -201 -256l326 -397q166 195 166 297q0 59 -86 84v24l393 27v-29q-90 -31 -174 -115.5t-271 -322.5q164 -225 291 -225q68 0 141 61q10 8 17 9q12 0 12 -19 q0 -25 -19.5 -65.5t-72.5 -68.5t-119 -28q-90 0 -163.5 51.5t-182.5 167.5q-104 -111 -217 -166t-250 -55q-176 0 -276.5 102.5t-100.5 256.5zM223 371q0 -129 98.5 -207t237.5 -78q182 0 307 139l-389 455q-119 -41 -186.5 -126t-67.5 -183zM434 1049q0 -49 29.5 -99.5 t140.5 -177.5q123 63 123 205q0 92 -43 144.5t-113 52.5q-59 0 -98 -36t-39 -89z" />
<glyph unicode="'" horiz-adv-x="362" vert-adv-y="2664" d="M82 1266q0 121 100 120q98 0 99 -120q0 -45 -23 -166l-55 -297h-43l-56 297q-23 117 -22 166z" />
<glyph unicode="(" horiz-adv-x="598" vert-adv-y="2664" d="M158 444q0 262 118.5 511t331.5 388l27 -53q-203 -186 -293 -395t-90 -483q0 -225 97 -447.5t280 -384.5l-25 -47q-207 150 -326.5 400.5t-119.5 510.5z" />
<glyph unicode=")" horiz-adv-x="598" vert-adv-y="2664" d="M-39 1290l27 53q213 -139 331.5 -387.5t118.5 -511.5q0 -260 -119.5 -510.5t-326.5 -400.5l-25 47q182 162 279.5 384t97.5 448q0 274 -90 483t-293 395z" />
<glyph unicode="*" horiz-adv-x="874" vert-adv-y="2664" d="M66 1063l40 65q127 -84 291 -182q2 193 -4 346h78q-10 -180 -12 -348q199 117 299 182l39 -67l-305 -166l303 -166l-39 -65q-176 108 -297 178q0 -121 8 -346h-76q6 160 6 344q-197 -113 -295 -176l-34 69q166 84 303 162q-205 119 -305 170z" />
<glyph unicode="+" horiz-adv-x="1366" vert-adv-y="2664" d="M145 590v88h492v496h88v-496h496v-88h-496v-490h-88v490h-492z" />
<glyph unicode="," horiz-adv-x="448" vert-adv-y="2664" d="M106 -311q86 35 137.5 99.5t51.5 111.5q0 37 -18.5 52t-81.5 15q-37 0 -60.5 22.5t-23.5 57.5q0 37 32.5 64.5t71.5 27.5q74 0 129 -52t55 -126q0 -102 -91 -200.5t-202 -116.5v45z" />
<glyph unicode="-" horiz-adv-x="641" vert-adv-y="2664" d="M78 356v88h485v-88h-485z" />
<glyph unicode="." horiz-adv-x="448" vert-adv-y="2664" d="M119 74q0 45 30.5 75.5t75.5 30.5t76 -30.5t31 -75.5t-31 -76t-76 -31t-75.5 31t-30.5 76z" />
<glyph unicode="/" horiz-adv-x="1024" vert-adv-y="2664" d="M117 -276l702 1701h88l-704 -1701h-86z" />
<glyph unicode="0" horiz-adv-x="960" vert-adv-y="2664" d="M68 633q0 285 123.5 476t293.5 191t294 -191t124 -476q0 -283 -124 -474.5t-294 -191.5q-164 0 -290.5 189.5t-126.5 476.5zM217 633q0 -619 268 -619q152 0 210.5 150.5t58.5 468.5q0 317 -58.5 468.5t-210.5 151.5t-210 -151.5t-58 -468.5z" />
<glyph unicode="1" horiz-adv-x="960" vert-adv-y="2664" d="M154 1018q141 92 340 282h67v-1175q0 -70 72 -82l94 -16v-33q-106 6 -240 6q-133 0 -239 -6v33l106 18q72 14 72 80v1012l-244 -158z" />
<glyph unicode="2" horiz-adv-x="960" vert-adv-y="2664" d="M45 -6q39 80 98.5 151.5t190.5 202.5q190 190 278 324.5t88 271.5q0 113 -70.5 182.5t-174.5 69.5q-102 0 -186.5 -70.5t-116.5 -199.5l-48 8q33 174 137.5 270t254.5 96t254 -99t104 -238t-97.5 -261t-293.5 -305q-104 -96 -260 -288h481q78 0 109.5 27.5t66.5 119.5h43 l-31 -262q-147 6 -417 6q-264 0 -410 -6z" />
<glyph unicode="3" horiz-adv-x="960" vert-adv-y="2664" d="M96 80q0 20 19.5 37.5t42.5 17.5q35 0 80 -37q115 -86 194 -86q125 0 220.5 108.5t95.5 264.5q0 131 -65 216t-163 85q-76 0 -155 -70l-23 39q41 37 90 74q225 166 225 281q0 84 -56 135t-140 51q-82 0 -154.5 -50.5t-113.5 -144.5l-37 21q59 141 143 209.5t211 68.5 q115 0 192.5 -65.5t77.5 -144.5q0 -80 -54 -152t-169 -158q150 10 240 -88t90 -252q0 -199 -141.5 -336t-360.5 -137q-141 0 -215 34t-74 79z" />
<glyph unicode="4" horiz-adv-x="960" vert-adv-y="2664" d="M57 356v68l244 356l367 520h49v-849h217v-95h-217v-389h-135v389h-525zM156 451h426v628q-279 -387 -426 -628z" />
<glyph unicode="5" horiz-adv-x="960" vert-adv-y="2664" d="M127 82q0 20 18.5 41.5t51.5 21.5q23 0 36 -10q143 -109 232 -108q115 0 203 99t88 234q0 143 -89 238.5t-221 95.5q-57 0 -107 -18.5t-73 -50.5h-35l39 655h224q154 0 202.5 4t69.5 31h31l-19 -156h-286q-160 0 -177 -6l-26 -375q90 43 184 43q168 0 284.5 -114.5 t116.5 -298.5q0 -205 -144 -323t-329 -118q-102 0 -188 36t-86 79z" />
<glyph unicode="6" horiz-adv-x="960" vert-adv-y="2664" d="M100 473q0 283 185.5 515.5t500.5 318.5l17 -39q-256 -96 -408.5 -328.5t-152.5 -499.5q0 -176 73.5 -302t180.5 -126q229 0 229 365q0 154 -59.5 239.5t-149.5 85.5q-35 0 -67 -14l-23 33q66 29 133 29q135 0 224 -102.5t89 -280.5q0 -170 -105 -285t-273 -115 q-174 0 -284 136.5t-110 369.5z" />
<glyph unicode="7" horiz-adv-x="960" vert-adv-y="2664" d="M94 1042v238h789v-35q-70 -123 -249 -627.5t-198 -617.5h-67q98 424 395 1155h-553q-51 0 -55 -27l-17 -86h-45z" />
<glyph unicode="8" horiz-adv-x="960" vert-adv-y="2664" d="M137 303q0 88 41.5 173t227.5 163q-248 123 -248 334q0 127 101 227t239 100q156 0 252 -83.5t96 -210.5q0 -111 -61.5 -178.5t-176.5 -125.5q188 -90 241.5 -182t53.5 -184q0 -150 -111.5 -259.5t-277.5 -109.5q-172 0 -274.5 95.5t-102.5 240.5zM260 291 q0 -125 71.5 -200t180.5 -75q113 0 187.5 75t74.5 192q0 123 -74.5 196.5t-244.5 136.5q-104 -51 -149.5 -125.5t-45.5 -199.5zM274 1016q0 -51 18.5 -100.5t101.5 -106.5t169 -82q84 39 129 113.5t45 163.5q0 109 -62.5 179t-172.5 70q-100 0 -164 -68.5t-64 -168.5z" />
<glyph unicode="9" horiz-adv-x="960" vert-adv-y="2664" d="M90 893q0 172 110.5 289.5t268.5 117.5q178 0 286.5 -141t108.5 -366q0 -317 -193.5 -553t-496.5 -279l-8 45q260 51 406.5 268.5t146.5 536.5q0 213 -72 328.5t-194 115.5q-94 0 -153.5 -104t-59.5 -277q0 -141 57 -227t152 -86q33 0 69 10l19 -43q-57 -31 -121 -30 q-131 0 -228.5 113.5t-97.5 281.5z" />
<glyph unicode=":" horiz-adv-x="448" vert-adv-y="2664" d="M113 78q0 45 32.5 77.5t77.5 32.5t78 -32.5t33 -77.5t-33 -78t-78 -33t-77.5 33t-32.5 78zM113 707q0 45 32.5 77.5t77.5 32.5t78 -32.5t33 -77.5t-33 -78t-78 -33t-77.5 33t-32.5 78z" />
<glyph unicode=";" horiz-adv-x="448" vert-adv-y="2664" d="M102 -258q86 35 137.5 99.5t51.5 111.5q0 70 -68 70l-41 -3q-29 0 -52.5 25t-23.5 55q0 37 33 65t72 28q74 0 129 -52.5t55 -126.5q0 -102 -91 -200.5t-202 -116.5v45zM129 711q0 45 30.5 75.5t76.5 30.5q45 0 75.5 -30.5t30.5 -75.5t-30.5 -76t-75.5 -31t-76 31t-31 76z " />
<glyph unicode="&#x3c;" horiz-adv-x="1366" vert-adv-y="2664" d="M147 598v80l1072 452v-96l-957 -395l957 -399v-97z" />
<glyph unicode="=" horiz-adv-x="1366" vert-adv-y="2664" d="M147 360v91h1072v-91h-1072zM147 825v88h1072v-88h-1072z" />
<glyph unicode="&#x3e;" horiz-adv-x="1366" vert-adv-y="2664" d="M147 143v97l955 397l-955 397v96l1072 -454v-80z" />
<glyph unicode="?" horiz-adv-x="747" vert-adv-y="2664" d="M88 1217q0 84 129 83q127 0 244 -92t167 -201.5t50 -201.5q0 -70 -30 -132.5t-79 -101.5t-90 -47t-119 -18q-102 -12 -106 -82l-6 -121h-45l-35 326q49 23 90 22q186 0 265 56.5t79 166.5q0 111 -80 206.5t-176 95.5q-43 0 -106 -17q-37 -10 -68 -10q-84 0 -84 68z M131 70q0 43 29.5 72.5t72.5 29.5t73 -29.5t30 -72.5t-30 -73t-73 -30t-72.5 30t-29.5 73z" />
<glyph unicode="@" horiz-adv-x="1878" vert-adv-y="2664" d="M211 371q0 252 122 484t347 364.5t477 132.5q215 0 379 -89t250 -255t86 -351q0 -178 -81 -355t-203 -262t-269 -85q-72 0 -112 36t-40 101q0 49 17 148q-231 -287 -391 -287q-74 0 -128.5 66.5t-54.5 168.5q0 135 85 304.5t221.5 283t244.5 113.5q141 0 172 -139l33 110 l158 23l-119 -400q-66 -231 -78 -286.5t-12 -85.5q0 -84 71 -84q88 0 189.5 84t169 239.5t67.5 317.5q0 274 -182 453t-467 179q-231 0 -431 -128t-313.5 -357t-113.5 -471q0 -223 96.5 -408.5t280.5 -289t408 -103.5q264 0 475 142.5t327 410.5h58q-96 -285 -335 -449.5 t-532 -164.5q-244 0 -449.5 118.5t-314 325.5t-108.5 445zM768 219q0 -66 35 -104.5t84 -38.5q88 0 196.5 111.5t160.5 260t52 250.5q0 61 -35.5 102.5t-86.5 41.5q-78 0 -167 -93.5t-164 -263.5t-75 -266z" />
<glyph unicode="A" horiz-adv-x="1386" vert-adv-y="2664" d="M-8 -4v33l129 10q68 6 94 76l459 1237h59l453 -1223q14 -35 26.5 -47t44.5 -23l113 -34v-31q-104 6 -268 6t-268 -6v31l135 20q39 6 54 14.5t15 24.5q0 12 -10 41l-166 457h-403l-164 -476q-6 -20 -6 -32q0 -16 12 -24.5t51 -10.5l144 -10v-33q-39 4 -252 4t-252 -4z M475 627h371l-191 528z" />
<glyph unicode="B" horiz-adv-x="1259" vert-adv-y="2664" d="M27 1239v35l120 6q385 20 451 20q229 0 350 -78.5t121 -226.5q0 -156 -221 -254q315 -86 315 -354q0 -111 -71.5 -204t-195.5 -139t-273 -46l-426 2h-146v33l129 24q39 8 55.5 30t16.5 81v991q0 33 -11.5 47.5t-80.5 20.5zM420 209q0 -156 239 -156q131 0 229.5 91.5 t98.5 209.5q0 164 -101.5 243t-310.5 79q-71 0 -155 -8v-459zM420 729q35 -6 160 -6q145 0 232 79t87 212q0 113 -84 175t-242 62q-80 0 -153 -18v-504z" />
<glyph unicode="C" horiz-adv-x="1300" vert-adv-y="2664" d="M88 612q0 178 89 340t241.5 255t329.5 93q180 0 268 -16t170 -67q10 -84 10 -173v-30h-39q-41 119 -138 181t-235 62q-215 0 -356 -177t-141 -457q0 -303 126 -457t373 -154q285 0 418 271h27q-23 -125 -64 -265q-131 -51 -381 -51q-322 0 -510 177.5t-188 467.5z" />
<glyph unicode="D" horiz-adv-x="1579" vert-adv-y="2664" d="M25 6v33l159 35q33 6 46.5 26.5t13.5 77.5v950q0 49 -12.5 70t-47.5 27l-139 24v33q35 -1 74 -1q107 0 245 8q188 11 267 11q201 0 317.5 -22.5t220 -81.5t170 -138t103.5 -181.5t37 -217.5q0 -193 -106.5 -369.5t-276.5 -234t-330 -57.5l-332 8h-409zM412 227 q0 -66 70.5 -122t203.5 -56q236 0 413 154.5t177 464.5q0 270 -184.5 425.5t-511.5 155.5q-111 0 -139.5 -21.5t-28.5 -99.5v-901z" />
<glyph unicode="E" horiz-adv-x="1343" vert-adv-y="2664" d="M49 -6v35l148 10q35 2 48 14.5t13 57.5v1030q0 49 -11 70.5t-40 23.5l-150 14v37q166 -6 551 -6q389 0 551 6q-6 -63 -6 -151q0 -68 4 -134h-27q-45 113 -69.5 161t-45 62.5t-54.5 14.5h-476q-35 0 -47 -19.5t-12 -66.5v-471h461q35 0 51 11.5t25 49.5l26 144h41 q-6 -121 -6 -246q0 -123 6 -246h-24l-45 160q-14 45 -41 62.5t-80 17.5h-414v-510q0 -45 16.5 -62.5t69.5 -17.5h455q61 0 103 19.5t86 81t99 186.5h41q-45 -188 -51 -338q-254 6 -598 6t-598 -6z" />
<glyph unicode="F" horiz-adv-x="1153" vert-adv-y="2664" d="M47 -8v33l131 14q35 4 46.5 19.5t11.5 54.5v1028q0 45 -9.5 66.5t-42.5 25.5l-121 14v37q92 -4 771 -4q180 0 268 4q-4 -53 -4 -162q0 -80 2 -133h-27q-45 152 -75.5 193t-94.5 41h-440q-35 0 -47.5 -19.5t-12.5 -66.5v-455h426q37 0 50.5 11.5t21.5 49.5l33 146h33 q-4 -76 -4 -225q0 -109 6 -228h-29l-43 142q-12 41 -32.5 49t-82.5 8h-379v-520q0 -53 17.5 -62.5t60.5 -13.5l131 -14v-33q-141 8 -282 8q-190 0 -283 -8z" />
<glyph unicode="G" horiz-adv-x="1579" vert-adv-y="2664" d="M94 610q0 305 220.5 497.5t566.5 192.5q272 0 454 -98l17 -246l-29 -6q-127 305 -410 305q-289 0 -452.5 -167.5t-163.5 -452.5q0 -248 169 -433.5t415 -185.5q307 0 307 220v227q0 31 -15.5 43t-48.5 14l-196 15v36q158 -8 260 -8q203 0 362 8v-36l-133 -15 q-35 -4 -48 -16t-13 -41v-227q0 -72 -4 -98.5t-19.5 -48t-96.5 -53.5t-187.5 -50.5t-221.5 -18.5q-336 0 -534.5 178.5t-198.5 464.5z" />
<glyph unicode="H" horiz-adv-x="1556" vert-adv-y="2664" d="M41 -8v33l158 28q33 6 43 24.5t10 61.5v1024q0 41 -10.5 58.5t-34.5 19.5l-109 12v33q78 -8 351 -8q88 0 161 8v-33l-155 -20q-27 -4 -35 -18.5t-8 -53.5v-489h735v491q0 41 -10.5 58.5t-34.5 19.5l-109 12v33q78 -8 346 -8q82 0 156 8v-33l-145 -20q-27 -4 -35 -18.5 t-8 -53.5v-1022q0 -43 9 -61.5t46 -24.5l158 -28v-33q-102 8 -314 8q-119 0 -227 -8v33l127 20q25 4 33 24.5t8 69.5v473h-735v-473q0 -51 8 -70.5t35 -23.5l127 -20v-33q-109 8 -228 8q-211 0 -313 -8z" />
<glyph unicode="I" horiz-adv-x="724" vert-adv-y="2664" d="M53 -8v49l180 10q31 4 41.5 14.5t10.5 45.5v1058q0 35 -11.5 49.5t-40.5 16.5l-180 18v33q23 -6 430 -6q121 0 193 6v-35l-180 -18q-29 -2 -40.5 -14.5t-11.5 -49.5v-1058q0 -35 10.5 -46.5t41.5 -13.5l180 -10v-49q-82 8 -311 8t-312 -8z" />
<glyph unicode="J" horiz-adv-x="681" vert-adv-y="2664" d="M-180 -426q0 37 18.5 58.5t48.5 21.5q49 0 107 -51q41 -37 82 -37q57 0 105 66.5t62.5 151.5t14.5 396v985q0 29 -7 45.5t-21.5 21.5t-59.5 9l-121 12v33q51 -6 256 -6q203 0 256 6v-33l-100 -18q-29 -4 -37 -20.5t-8 -55.5v-971q0 -143 -27 -257.5t-82 -211 t-109.5 -146.5t-110.5 -67.5t-140 -17.5q-127 0 -127 86z" />
<glyph unicode="K" horiz-adv-x="1515" vert-adv-y="2664" d="M70 -8v33l129 18q29 4 40 18.5t11 49.5v1065q0 35 -9.5 45t-41.5 14l-129 18v33q25 -6 370 -6q86 0 158 6v-33l-137 -18q-31 -2 -41 -13.5t-10 -45.5v-1065q0 -33 11 -46.5t40 -17.5l137 -22v-33q-78 8 -264 8t-264 -8zM444 641q94 47 195 131l367 309q110 91 110 128 q0 19 -29 24l-147 20v33q59 -6 250 -6q190 0 250 6v-33q-96 -8 -184.5 -47t-215.5 -145l-415 -352l606 -519q106 -92 142 -116.5t77 -30.5l106 -18v-33q-111 8 -305 8q-195 0 -305 -8v33l146 24q33 4 32 21q0 14 -37 45l-477 399q-94 78 -166 127z" />
<glyph unicode="L" horiz-adv-x="1173" vert-adv-y="2664" d="M20 -8v28l187 27q53 6 53 43v1071q0 39 -13.5 50.5t-39.5 15.5l-158 26v33q111 -6 422 -6q131 0 184 6v-33l-176 -26q-31 -4 -42 -13.5t-11 -52.5v-1069q0 -27 9 -40t48 -13h191q178 0 239.5 18.5t126 86t111.5 184.5h33l-60 -336q-168 8 -551 8q-420 0 -553 -8z" />
<glyph unicode="M" horiz-adv-x="1705" vert-adv-y="2664" d="M14 -6v33l113 20q78 14 93.5 33.5t15.5 69.5v1081l-187 22v33q35 -6 197 -6q137 0 188 6l455 -1016l414 1016q100 -6 200 -6q98 0 185 6v-33l-127 -26q-59 -12 -82 -37t-23 -84v-930q0 -63 11.5 -84.5t48.5 -30.5l174 -34v-33q-197 6 -293 6q-127 0 -293 -6v33l123 24 q47 10 59 30.5t12 80.5v956l-458 -1134l-545 1222v-1056q0 -96 61 -103l189 -20v-33q-123 6 -264 6q-104 0 -267 -6z" />
<glyph unicode="N" horiz-adv-x="1579" vert-adv-y="2664" d="M25 -6v33l112 20q70 12 89.5 28.5t19.5 61.5v893q0 94 -20.5 141.5t-78.5 55.5l-120 18v35h245q43 0 60.5 -10t48.5 -43l926 -1010l-21 922q-2 57 -19.5 73.5t-54.5 20.5l-176 20v33q57 -6 221 -6t222 6v-33l-86 -8q-35 -5 -43 -25q-7 -17 -7 -59v-22l21 -1166h-49 l-1012 1086v-922q0 -51 12.5 -68.5t51.5 -21.5l188 -20v-33q-123 6 -264 6q-104 0 -266 -6z" />
<glyph unicode="O" horiz-adv-x="1599" vert-adv-y="2664" d="M94 627q0 279 199 476t532 197q283 0 479.5 -189t196.5 -472q0 -301 -194.5 -486.5t-509.5 -185.5q-313 0 -508 186.5t-195 473.5zM279 612q0 -244 146 -426t363 -182q260 0 396.5 160t136.5 463q0 283 -144.5 459t-379.5 176q-168 0 -288 -90.5t-175 -245t-55 -314.5z " />
<glyph unicode="P" horiz-adv-x="1153" vert-adv-y="2664" d="M43 1241v39q199 0 270 4l291 16q33 2 64 3q229 0 329.5 -117t100.5 -260q0 -160 -116 -271.5t-284 -111.5q-129 0 -196 80l12 12q53 -18 111 -19q125 0 210 81t85 221q0 135 -95.5 230t-300.5 95q-72 0 -108 -16v-1102q0 -31 13 -44t58 -24l150 -32v-33q-172 8 -277 8 q-72 0 -276 -6v33l115 16q31 6 41 22.5t10 55.5v977q0 78 -48 104.5t-159 38.5z" />
<glyph unicode="Q" horiz-adv-x="1579" vert-adv-y="2664" d="M96 559q0 319 205 530t516 211q279 0 468.5 -194.5t189.5 -464.5q0 -246 -149.5 -431t-420.5 -235q180 -205 627 -350v-43q-246 0 -446 98.5t-384 288.5q-268 41 -437 214t-169 376zM291 631q0 -272 132 -446.5t351 -174.5q238 0 374 148.5t136 416.5q0 313 -131 495.5 t-356 182.5q-219 0 -362.5 -180t-143.5 -442z" />
<glyph unicode="R" horiz-adv-x="1280" vert-adv-y="2664" d="M43 -8v33l113 12q59 6 78.5 23.5t19.5 82.5v959q0 63 -16.5 90t-96.5 41l-90 16l-2 31q90 0 127 2l336 18q41 2 78 3q217 0 322.5 -76t105.5 -236q0 -121 -60.5 -191.5t-185.5 -129.5l225 -400q92 -158 152.5 -191.5t163.5 -47.5v-33q-86 2 -211 2q-104 0 -148 -2 l-313 580q-35 63 -102 63h-115v-485q0 -49 19.5 -72t68.5 -35l100 -24v-33q-147 8 -284 8q-162 0 -285 -8zM424 696q20 -1 39 -1q375 0 375 263q0 127 -93.5 206t-250.5 79q-33 0 -70 -4v-543z" />
<glyph unicode="S" horiz-adv-x="980" vert-adv-y="2664" d="M78 63l22 306h29q18 -152 122.5 -249t231.5 -97q121 0 204 71.5t83 171.5q0 90 -66.5 151.5t-220.5 141.5q-213 111 -297 201t-84 207q0 145 113 239t293 94t297 -90l-8 -233h-27q-59 268 -295 268q-111 0 -185.5 -63.5t-74.5 -149.5q0 -68 60.5 -125t250.5 -155 q195 -100 282 -176t87 -226q0 -172 -120 -277.5t-335 -105.5q-199 0 -362 96z" />
<glyph unicode="T" horiz-adv-x="1259" vert-adv-y="2664" d="M12 1008q0 23 11 65l63 250q14 53 31 53q14 0 39 -45q18 -37 34.5 -44t63.5 -7h793q74 0 96 11.5t43 58.5q12 29 31 28q27 0 26 -41l-4 -323q0 -33 -16 -33q-23 0 -37 59q-23 100 -55.5 139.5t-141.5 39.5h-256v-1055q0 -55 13.5 -73.5t56.5 -29.5l160 -34v-33 q-109 6 -320 6q-270 0 -319 -6v33l143 28q59 12 77.5 36t18.5 75v1053h-252h-8q-63 0 -103 -31q-42 -33 -124 -150q-37 -53 -53 -53q-10 0 -11 23z" />
<glyph unicode="U" horiz-adv-x="1449" vert-adv-y="2664" d="M37 1253v33q135 -6 276 -6q203 0 277 6v-33l-129 -16q-37 -4 -52.5 -27.5t-15.5 -74.5v-732q0 -197 82 -283.5t268 -86.5q250 0 337 115.5t87 416.5v568q0 82 -84 98l-120 22v33q49 -6 208 -6q160 0 211 6v-33l-118 -26q-45 -8 -45 -94v-621q0 -287 -106.5 -416 t-362.5 -129q-250 0 -384.5 104.5t-134.5 301.5v768q0 49 -10 70.5t-39 25.5z" />
<glyph unicode="V" horiz-adv-x="1386" vert-adv-y="2664" d="M-6 1253v33q70 -6 297 -6q199 0 299 6v-33l-131 -8q-53 -2 -76 -15t-23 -42q0 -31 33 -109l373 -897l328 910q20 59 20 84q0 31 -27.5 44t-105.5 23l-82 10v33q55 -6 252 -6q209 0 254 6v-33l-111 -18q-61 -12 -84 -68l-471 -1214h-43l-499 1180q-23 53 -40.5 71.5 t-47.5 24.5z" />
<glyph unicode="W" horiz-adv-x="1812" vert-adv-y="2664" d="M-18 1253v33q51 -6 200 -6q131 0 205 6v-33l-96 -18q-16 -2 -17 -18q0 -27 45 -140l371 -934l213 457l-213 490q-41 90 -59.5 115.5t-44.5 29.5l-101 18v33q57 -6 320 -6q102 0 147 6v-33l-118 -22q-18 -2 -19 -21q0 -23 45 -131l125 -297l162 361q10 20 10 41 q0 25 -15.5 40t-31.5 17l-70 12v33q51 -6 187 -6q147 0 186 6v-33l-96 -18q-70 -14 -107 -94l-196 -422l250 -553l329 844q43 111 43 161q0 55 -51 66l-84 16v33q20 -6 160 -6q133 0 166 6v-33l-62 -18q-31 -10 -47 -28.5t-32 -63.5l-445 -1188h-43l-268 588l-285 -588h-43 l-457 1132q-39 94 -56 119t-48 33z" />
<glyph unicode="X" horiz-adv-x="1429" vert-adv-y="2664" d="M10 -8v33l131 20q51 10 95.5 45t99.5 107l311 403l-373 520q-55 74 -76.5 94.5t-50.5 24.5l-137 16v33q117 -8 406 -8q145 0 227 8v-33l-125 -20q-72 -10 -72 -55q0 -33 43 -93l259 -356l280 371q29 37 29 65q0 45 -72 62l-117 26v33q111 -8 254 -8q197 0 252 8v-33 l-106 -20q-70 -12 -168 -143l-312 -414l390 -514q84 -113 141 -121l131 -18v-33q-127 8 -313 8q-150 0 -314 -8v33l95 12q57 8 78.5 17t21.5 26q0 20 -33 65l-297 400l-256 -332q-43 -57 -43 -96q0 -35 33 -54.5t74 -23.5l125 -14v-33q-113 8 -306 8q-164 0 -305 -8z" />
<glyph unicode="Y" horiz-adv-x="1343" vert-adv-y="2664" d="M-16 1253v33q41 -6 276 -6q190 0 275 6v-33l-129 -18q-55 -8 -56 -39q0 -10 8 -22l369 -566l352 508q31 45 31 72q0 37 -51 45l-131 20v33q18 -6 217 -6q168 0 215 8v-33l-70 -16q-61 -8 -174 -166l-330 -463q-16 -23 -22 -53.5t-6 -95.5v-336q0 -60 80 -72l153 -22v-37 q-236 6 -311 6q-172 0 -307 -6v33l153 24q35 6 57.5 25.5t22.5 44.5v342q0 47 -37 102l-364 547q-82 123 -131 129z" />
<glyph unicode="Z" horiz-adv-x="1343" vert-adv-y="2664" d="M78 -8v20l909 1219l-563 -10q-82 -4 -124 -18.5t-82 -58.5t-109 -149h-21l121 375h35q-8 -31 -8 -47q0 -37 43 -46q35 -7 135 -7h47l731 10v-41l-895 -1188h391q223 0 318.5 18.5t144.5 97.5t63 193h33l-8 -366q-289 6 -467 6q-436 0 -694 -8z" />
<glyph unicode="[" horiz-adv-x="555" vert-adv-y="2664" d="M215 -410v1690h387v-43h-135q-76 0 -100.5 -13.5t-24.5 -80.5v-1331q0 -82 8 -118t32 -47.5t77 -11.5h143v-45h-387z" />
<glyph unicode="\" horiz-adv-x="1024" vert-adv-y="2664" d="M113 1280h88l710 -1690h-88z" />
<glyph unicode="]" horiz-adv-x="555" vert-adv-y="2664" d="M-43 1233v47h391v-1690h-387v45h143q53 0 77 11.5t32 47.5t8 118v1325q0 61 -19.5 78.5t-107.5 17.5h-137z" />
<glyph unicode="^" horiz-adv-x="1024" vert-adv-y="2664" d="M66 836l446 538l449 -538l-64 -54l-385 461l-383 -461z" />
<glyph unicode="_" horiz-adv-x="1024" vert-adv-y="2664" d="M-12 -154h1048v-102h-1048v102z" />
<glyph unicode="`" horiz-adv-x="681" vert-adv-y="2664" d="M217 1243q0 18 17.5 33.5t39.5 15.5q61 0 154 -129l125 -174l-10 -10l-181 121q-145 100 -145 143z" />
<glyph unicode="a" horiz-adv-x="831" vert-adv-y="2664" d="M88 518q0 29 53.5 117t133 135t155.5 47q127 0 184.5 -50t57.5 -161v-416q0 -47 3 -72.5t21.5 -38.5t36.5 -13q45 0 84 63l27 -14q-59 -147 -164 -148q-63 0 -99 36t-36 103q-113 -86 -167 -112.5t-136 -26.5q-133 0 -133 109q0 96 117.5 204.5t322.5 184.5v139 q0 66 -37 108t-98 42q-72 0 -123 -48.5t-62 -134.5q-4 -35 -33.5 -59.5t-62.5 -24.5q-14 0 -29.5 7.5t-15.5 23.5zM250 131q0 -39 25.5 -64.5t64.5 -25.5q55 0 132 56.5t77 111.5v211q-131 -51 -215 -135t-84 -154z" />
<glyph unicode="b" horiz-adv-x="1044" vert-adv-y="2664" d="M33 1257l6 31l262 64v-607q166 72 293 72q166 0 270.5 -116.5t104.5 -294.5q0 -201 -123 -320t-299 -119q-90 0 -174 37q-78 35 -92 35q-33 0 -78 -82h-31v1133q0 80 -22.5 106t-116.5 61zM301 221q0 -90 56.5 -142t152.5 -52q309 0 309 340q0 166 -88 274.5t-223 108.5 q-88 0 -147.5 -25t-59.5 -57v-447z" />
<glyph unicode="c" horiz-adv-x="854" vert-adv-y="2664" d="M92 403q0 203 112.5 308.5t330.5 105.5q113 0 183 -32.5t70 -88.5q0 -29 -19 -51t-52 -22q-53 0 -115 61q-68 68 -141 68q-88 0 -154.5 -95.5t-66.5 -238.5q0 -164 86 -260.5t202 -96.5q134 0 271 121l2 -63q-76 -80 -152 -116t-182 -36q-160 0 -267.5 125t-107.5 311z " />
<glyph unicode="d" horiz-adv-x="1024" vert-adv-y="2664" d="M68 356q0 190 119.5 325.5t279.5 135.5t264 -55v354q0 78 -25.5 103.5t-134.5 52.5v33q131 10 238 47h51v-1213q0 -70 21.5 -85t117.5 -17v-33q-154 -35 -268 -47v94q-106 -43 -178 -63.5t-156 -20.5q-133 0 -231 117t-98 272zM213 385q0 -152 86 -247t215 -95 q63 0 124.5 17t92.5 42v465q0 94 -65.5 148.5t-178.5 54.5q-119 0 -196.5 -106.5t-77.5 -278.5z" />
<glyph unicode="e" horiz-adv-x="854" vert-adv-y="2664" d="M86 381q0 188 111.5 312t283.5 124q131 0 218.5 -83t93.5 -220h-572q-6 -41 -6 -82q0 -160 87 -260t237 -100q72 0 131 28.5t129 94.5l8 -50q-143 -178 -371 -178q-150 0 -250 121t-100 293zM231 557h373q55 0 55 43t-40.5 106.5t-145.5 63.5q-90 0 -156 -58.5 t-86 -154.5z" />
<glyph unicode="f" horiz-adv-x="661" vert-adv-y="2664" d="M96 686v31q96 41 121 63.5t25 63.5q0 18 14 129.5t77.5 201t138.5 133.5t183 44q170 0 170 -86q0 -31 -21.5 -49.5t-55.5 -18.5q-33 0 -70 16q-98 43 -148 43q-41 0 -79.5 -26.5t-55 -52t-22.5 -82t-6 -187.5q0 -92 2 -125l266 -6v-71l-262 -9v-514q0 -125 86 -137 l137 -20v-33q-129 6 -266 6q-154 0 -232 -6v31l64 14q57 12 70.5 32.5t13.5 96.5v506q-41 8 -150 12z" />
<glyph unicode="g" horiz-adv-x="917" vert-adv-y="2664" d="M78 -317q0 128 258 239q-90 35 -141.5 82t-51.5 88q0 33 21.5 51.5t79.5 34.5q51 16 108 41q-98 55 -144 122t-46 159q0 133 95 225t241 92q66 0 112.5 -15.5t106.5 -51.5q51 -33 82 -33q25 0 84 8q53 6 73 6q35 0 44.5 -14.5t9.5 -59.5q0 -31 -35 -30q-25 0 -90 16 q-63 15 -88 15q-7 0 -11 -1q43 -86 43 -153q0 -102 -87 -202.5t-275 -100.5q-80 0 -143.5 -31t-63.5 -59q0 -35 112.5 -70t284.5 -41q147 -4 229.5 -64.5t82.5 -152.5q0 -78 -56.5 -152.5t-177.5 -118.5t-260 -44q-170 0 -283.5 66.5t-113.5 148.5zM199 -297 q0 -80 79.5 -137.5t213.5 -57.5q170 0 278.5 63.5t108.5 158.5q0 98 -102.5 134t-301.5 36q-141 0 -208.5 -63.5t-67.5 -133.5zM350.5 307.5q55.5 -71.5 141.5 -71.5q92 0 147 69.5t55 196.5q0 129 -57.5 204.5t-147.5 75.5q-194 0 -194 -275q0 -128 55.5 -199.5z" />
<glyph unicode="h" horiz-adv-x="1044" vert-adv-y="2664" d="M31 -8v33l110 22q27 6 35 13.5t8 31.5v1041q0 55 -25.5 76.5t-125.5 43.5v25q86 4 225 74h49v-723q150 188 328 188q109 0 175.5 -73.5t66.5 -204.5v-443q0 -20 8 -31.5t43 -19.5l90 -20v-33q-127 8 -197 8q-72 0 -198 -8v33l84 22q27 8 38 18.5t11 45.5v424 q0 86 -51.5 137t-141.5 51q-70 0 -129 -40t-127 -126v-446q0 -25 7.5 -35t31.5 -17l139 -34v-33q-66 8 -227 8q-162 0 -227 -8z" />
<glyph unicode="i" horiz-adv-x="468" vert-adv-y="2664" d="M4 -8v33l115 22q63 12 63 74v481q0 49 -24.5 71.5t-98.5 39.5v28q145 37 213 148h33v-774q0 -31 9.5 -45.5t35.5 -20.5l105 -24v-33q-63 8 -226 8q-162 0 -225 -8zM141 1223q0 35 26.5 61.5t61.5 26.5t64 -27t29 -61q0 -33 -30 -58.5t-67 -25.5q-35 0 -59.5 24.5 t-24.5 59.5z" />
<glyph unicode="j" horiz-adv-x="468" vert-adv-y="2664" d="M43 -481q78 66 112.5 159t34.5 240v692q0 53 -22.5 70.5t-104.5 26.5v38q152 43 218 144h30v-959q0 -123 -65.5 -240.5t-186.5 -193.5zM129 1219q0 41 23.5 66.5t62.5 25.5q41 0 64.5 -25.5t23.5 -66.5t-25.5 -65t-66.5 -24q-35 0 -58.5 26t-23.5 63z" />
<glyph unicode="k" horiz-adv-x="960" vert-adv-y="2664" d="M53 -8v33l76 12q37 4 47 19.5t10 66.5v1018q0 47 -21.5 62.5t-105.5 27.5v29q104 20 217 92h33v-903q41 0 82 24.5t109.5 79.5t96.5 85t28 48q0 41 -131 62v32h415v-32q-143 -14 -254 -109l-178 -154l275 -329q57 -68 83.5 -89.5t53.5 -25.5l90 -16v-33q-78 8 -223 8 t-224 -8v33l95 8q45 4 45 22q0 12 -15.5 34t-57.5 73t-94 119.5t-73.5 91t-39 32t-46.5 9.5h-37v-291q0 -51 10.5 -64.5t40.5 -19.5l78 -14v-33q-63 8 -192 8t-193 -8z" />
<glyph unicode="l" horiz-adv-x="468" vert-adv-y="2664" d="M10 -6v33l127 24q27 6 37 16.5t10 41.5v1040q0 43 -24.5 63.5t-108.5 44.5v27q78 16 211 68h47v-1239q0 -39 8.5 -50.5t38.5 -17.5l109 -18v-33q-100 6 -227 6t-228 -6z" />
<glyph unicode="m" horiz-adv-x="1579" vert-adv-y="2664" d="M37 -8v33l59 12q45 10 60.5 28.5t15.5 61.5v442q0 51 -19.5 70.5t-91.5 30.5v32q104 27 197 152h39v-197q90 82 160.5 121t146.5 39q96 0 147.5 -28.5t102.5 -120.5q70 72 142.5 110.5t166.5 38.5q121 0 188.5 -72.5t67.5 -207.5v-414q0 -76 33 -82l92 -16v-33 q-102 8 -194 8q-123 0 -205 -6v33l59 12q49 10 69.5 25.5t20.5 60.5v367q0 121 -48 176t-150 55q-135 0 -236 -119v-463q0 -43 8.5 -64.5t44.5 -29.5l105 -22v-33q-102 8 -217 8q-121 0 -234 -8v33l60 14q57 14 82.5 31.5t25.5 60.5v365q0 102 -49 163.5t-127 61.5 q-92 0 -177 -54.5t-85 -109.5v-418q0 -49 13.5 -67.5t41.5 -24.5l105 -22v-33q-102 8 -205 8q-106 0 -215 -8z" />
<glyph unicode="n" horiz-adv-x="1044" vert-adv-y="2664" d="M37 -6v33l108 20q41 6 41 62v405q0 63 -25.5 86t-90.5 33v37q131 31 206 184h33v-184q78 68 172 107.5t166 39.5q236 0 236 -280v-408q0 -39 10 -59.5t41 -26.5l90 -16v-33q-106 6 -213 6q-106 0 -213 -6v33l113 16q45 6 45 80v403q0 90 -51.5 143.5t-139.5 53.5 q-131 0 -256 -125v-498q0 -33 49 -45l121 -28v-33q-76 6 -221 6t-221 -6z" />
<glyph unicode="o" horiz-adv-x="1044" vert-adv-y="2664" d="M80 395q0 182 125 302t327 120q188 0 309.5 -126t121.5 -312q0 -170 -128 -291t-327 -121q-178 0 -303 119t-125 309zM227 375q0 -170 80 -269.5t207 -99.5q131 0 216 104.5t85 276.5q0 176 -80 283.5t-211 107.5q-141 0 -219 -102t-78 -301z" />
<glyph unicode="p" horiz-adv-x="1044" vert-adv-y="2664" d="M25 -494l86 17q31 6 40 19.5t9 51.5v1027q0 74 -27 77l-100 17l6 28q102 43 144 72t71 76h31v-201q178 127 344 127q154 0 248 -109.5t94 -293.5q0 -186 -125 -316.5t-320 -130.5q-117 0 -241 60v-435q0 -27 17 -42t69 -23l123 -21v-32q-80 8 -236 8q-129 0 -233 -8v32z M285 180q0 -74 67.5 -122t173.5 -48q131 0 217 97.5t86 236.5q0 178 -75.5 278.5t-202.5 100.5q-125 0 -266 -94v-449z" />
<glyph unicode="q" horiz-adv-x="1003" vert-adv-y="2664" d="M61 399q0 176 121 298t293 122q94 0 187 -41q59 -26 90 -26h2q31 0 47 26.5t26 85.5h39v-1224q0 -57 9.5 -83t39.5 -32l86 -19v-32q-104 8 -221 8q-51 0 -221 -6v32l96 19q45 10 65.5 28.5t20.5 63.5v436q-141 -88 -284 -88q-162 0 -279 134.5t-117 297.5zM209 436 q0 -143 97 -264t226 -121q127 0 168 37t41 180v205q0 156 -78.5 229.5t-179.5 73.5q-115 0 -194.5 -95t-79.5 -245z" />
<glyph unicode="r" horiz-adv-x="681" vert-adv-y="2664" d="M43 -8v33l102 18q41 10 52.5 30.5t11.5 73.5v394q0 41 -17.5 59t-76.5 31l-56 12l4 31q80 29 133.5 66.5t94.5 123.5h37q8 -111 8 -258q39 74 112.5 142.5t131.5 68.5q45 0 72.5 -28.5t27.5 -73.5q0 -35 -22.5 -55.5t-57.5 -20.5q-31 0 -65 14q-41 18 -68 19 q-45 0 -88 -74t-43 -115v-340q0 -53 17.5 -70.5t74.5 -25.5l158 -22v-33q-111 8 -273 8q-153 0 -270 -8z" />
<glyph unicode="s" horiz-adv-x="747" vert-adv-y="2664" d="M113 252h34q29 -109 100.5 -175.5t153.5 -66.5q66 0 111 42t45 106q0 117 -192 188q-135 51 -193.5 107.5t-58.5 138.5q0 104 77.5 164.5t208.5 60.5q117 0 201 -49l12 -178h-39q-18 70 -81.5 125t-112.5 55q-150 0 -150 -137q0 -55 49.5 -93t149.5 -75q231 -88 231 -250 q0 -106 -81.5 -177t-202.5 -71q-147 0 -242 53z" />
<glyph unicode="t" horiz-adv-x="598" vert-adv-y="2664" d="M72 702q0 14 26 27q88 37 128 85t87 173h25l2 -219l278 6v-74l-278 -8v-487q0 -92 25.5 -133t83.5 -41q70 0 167 57l19 -29q-43 -49 -99.5 -70.5t-152.5 -21.5q-106 0 -139 52.5t-33 205.5v463l-111 -2q-29 0 -28 16z" />
<glyph unicode="u" horiz-adv-x="1003" vert-adv-y="2664" d="M33 752v28h262v-528q0 -98 33.5 -139t128.5 -41q139 0 256 104v494q0 39 -31 52t-158 26v32h322v-602q0 -70 21.5 -85t121.5 -19l2 -31l-278 -74v156q-90 -78 -164 -118t-148 -40q-102 0 -168.5 76t-66.5 201v428q0 37 -21.5 50t-111.5 30z" />
<glyph unicode="v" horiz-adv-x="960" vert-adv-y="2664" d="M-12 754v32q47 -6 233 -6q176 0 232 6v-32l-127 -21q-39 -6 -39 -31q0 -27 37 -112l198 -457l187 463q20 49 20 78q0 55 -84 67l-80 13v32q27 -6 207 -6q160 0 207 6v-32l-115 -17q-33 -4 -47 -19.5t-37 -70.5l-286 -694h-29l-309 698q-25 49 -39.5 63.5t-44.5 20.5z" />
<glyph unicode="w" horiz-adv-x="1366" vert-adv-y="2664" d="M-20 754v32q45 -6 202 -6q135 0 197 6v-32l-82 -13q-39 -8 -39 -39q0 -18 10 -40l267 -558l163 332l-80 211q-23 57 -38 72.5t-31 17.5l-86 17v32q57 -6 219 -6q174 0 225 6v-32l-100 -19q-61 -14 -62 -47q0 -14 11 -41l200 -526l209 489q12 27 13 52q0 33 -22.5 53 t-49.5 24l-84 15v32q45 -6 178 -6q123 0 180 6v-32l-51 -11q-61 -18 -104 -114l-295 -676h-33l-174 422l-215 -422h-41l-363 733q-27 55 -77 62z" />
<glyph unicode="x" horiz-adv-x="937" vert-adv-y="2664" d="M29 754v32q43 -6 200 -6q152 0 203 6v-36l-74 -11q-33 -6 -32 -26q0 -29 47 -88l119 -146l114 150q27 37 27 63q0 41 -58 51l-61 11v32q52 -7 125 -7h18q84 1 113 1q84 0 111 6v-32l-68 -13q-47 -10 -84 -35.5t-82 -87.5l-129 -174l246 -317q57 -70 90 -82l57 -20v-33 q-78 8 -194 8q-123 0 -197 -8v33l70 18q51 14 51 39q0 18 -31 57l-164 207l-151 -207q-23 -29 -23 -49q0 -37 80 -53l62 -12v-33q-82 8 -150 8q-129 0 -229 -8v33l57 14q55 10 93 43t83 94l150 203l-203 246q-90 109 -121 114z" />
<glyph unicode="y" horiz-adv-x="854" vert-adv-y="2664" d="M6 758v33q129 -10 205 -11q121 0 207 11v-33l-125 -25q-31 -6 -31 -28q0 -8 6 -27l207 -584l191 529q10 27 10 49q0 49 -37 57l-115 29v33q92 -10 174 -11q72 0 174 11v-33l-65 -19q-29 -8 -49.5 -33.5t-48.5 -103.5l-347 -913q-35 -96 -86 -145.5t-108 -49.5 q-88 0 -88 66q0 73 74 73h2q27 0 63 -8q16 -4 27 -4q16 0 27.5 10.5t46 70.5t60.5 132t26 94q0 35 -21 88l-250 662q-16 47 -53 57z" />
<glyph unicode="z" horiz-adv-x="874" vert-adv-y="2664" d="M51 -6v29l586 708l-283 -8q-86 -2 -136 -33t-109 -125h-25l102 316h39q-10 -35 -10 -58q1 -29 21 -41q18 -10 78 -10h22l459 8v-43l-551 -688h153q143 0 200.5 10.5t92.5 49t74 141.5h35l-45 -256q-184 6 -351 6q-244 0 -352 -6z" />
<glyph unicode="{" horiz-adv-x="980" vert-adv-y="2664" d="M283 395v45q106 14 167.5 73.5t61.5 133.5q0 57 -25 150q-25 96 -24 166q0 145 114.5 258.5t264.5 130.5v-35q-115 -27 -169.5 -86.5t-54.5 -159.5q0 -61 19 -143q23 -102 22 -166q0 -106 -76.5 -199.5t-217.5 -144.5q141 -51 217.5 -144.5t76.5 -199.5q0 -63 -22 -166 q-18 -82 -19 -144q0 -102 54.5 -161.5t169.5 -85.5v-35q-150 16 -263.5 131t-113.5 262q0 70 22 164q25 92 25 149q0 74 -61.5 133.5t-167.5 73.5z" />
<glyph unicode="|" horiz-adv-x="1024" vert-adv-y="2664" d="M469 -410v1690h88v-1690h-88z" />
<glyph unicode="}" horiz-adv-x="980" vert-adv-y="2664" d="M176 -483q115 27 169 86t54 161q0 61 -18 144q-23 102 -23 166q0 106 77 199.5t218 144.5q-141 51 -218 144t-77 200q0 63 23 166q18 82 18 143q0 100 -54 159.5t-169 86.5v35q150 -16 264.5 -130t114.5 -259q0 -70 -25 -166q-25 -92 -24 -150q0 -74 61.5 -133t167.5 -74 v-45q-106 -14 -167.5 -73.5t-61.5 -133.5q0 -57 24 -149q23 -94 23 -164q0 -147 -113.5 -262t-263.5 -131v35z" />
<glyph unicode="~" horiz-adv-x="1366" vert-adv-y="2664" d="M150 502q8 131 72.5 201.5t164.5 70.5q41 0 116 -22.5t259 -100.5q143 -61 231 -61q147 0 178 182h43q-8 -129 -74.5 -200.5t-170.5 -71.5q-49 0 -101.5 16t-175.5 68q-150 61 -213 79.5t-110 18.5q-68 0 -108 -42t-68 -138h-43z" />
<glyph horiz-adv-x="1021" vert-adv-y="2664" />
<glyph unicode="&#xa0;" horiz-adv-x="512" vert-adv-y="2664" />
<glyph unicode="&#xa1;" horiz-adv-x="448" vert-adv-y="2664" d="M121 731q0 43 29.5 73t72.5 30t73 -30t30 -73t-30 -72.5t-73 -29.5t-72.5 29.5t-29.5 72.5zM137 -383q0 43 21 178q12 70 16 154l33 571h37l37 -571q4 -80 16 -154q20 -135 20 -178q0 -49 -25.5 -79t-64.5 -30t-64.5 30t-25.5 79z" />
<glyph unicode="&#xa2;" horiz-adv-x="854" vert-adv-y="2664" d="M80 395q0 182 121 300t313 118q23 0 47 -2l133 375h39l-131 -377q186 -23 186 -115q0 -31 -23.5 -55.5t-51.5 -24.5q-47 0 -144 97l-207 -586q74 -66 170 -66q131 0 265 121v-67q-135 -145 -318 -146q-78 0 -162 29l-122 -344h-41l127 364q-96 63 -148.5 167t-52.5 212z M238 410q0 -141 90 -254l207 577q-35 12 -68 12q-96 0 -162.5 -94t-66.5 -241z" />
<glyph unicode="&#xa3;" horiz-adv-x="1173" vert-adv-y="2664" d="M78 -436q0 39 41.5 84t154.5 119l97 376l-271 13v34l283 9q164 662 259 819.5t186.5 219.5t232.5 62q80 0 124 -25.5t44 -64.5q0 -68 -49 -67q-41 0 -95 47q-72 63 -131 63q-61 0 -125.5 -74.5t-115.5 -223t-195 -748.5l260 -12l-18 -52l-264 -6q-63 -166 -170 -358 q98 45 168 45q53 0 109 -27.5t155 -107.5q113 -92 162 -92q41 0 91 51t50 106q0 31 -17 66q-25 49 -24 82q0 51 55 51q39 0 60.5 -29.5t21.5 -79.5q0 -66 -44 -145.5t-131 -126.5t-155 -47q-88 0 -174 82q-156 145 -256 145q-88 0 -131 -106q-20 -55 -62 -90t-79 -35 q-47 0 -47 43z" />
<glyph unicode="&#xa4;" vert-adv-y="2664" d="M295 610q0 285 180 490l-180 180l43 45l180 -180q211 195 508 194q279 0 496 -190l184 184l45 -45l-184 -182q193 -209 192.5 -504t-178.5 -493l168 -166l-45 -45l-166 165q-205 -186 -511 -186t-505 180l-168 -166l-43 46l166 165q-182 201 -182 508zM356 607 q0 -296 190.5 -482t479.5 -186q293 0 482.5 185t189.5 480t-201 484.5t-471 189.5q-287 0 -478.5 -187.5t-191.5 -483.5z" />
<glyph unicode="&#xa5;" horiz-adv-x="1343" vert-adv-y="2664" d="M-16 1253v33q41 -6 276 -6q190 0 275 6v-33l-129 -18q-55 -8 -56 -39q0 -10 8 -22l367 -562h4l350 504q31 45 31 72q0 37 -51 45l-131 20v33q18 -6 217 -6q168 0 215 8v-33l-70 -16q-61 -8 -174 -166l-328 -461h426v-47h-448q-8 -29 -8 -104v-115h456v-47h-456v-174 q0 -59 80 -72l153 -22v-37q-236 6 -311 6q-172 0 -307 -6v33l153 24q35 6 57.5 25.5t22.5 44.5v178h-473v47h473v117q0 51 -37 102h-436v47h406l-334 500q-82 123 -131 129z" />
<glyph unicode="&#xa6;" horiz-adv-x="1024" vert-adv-y="2664" d="M469 193h88v-721h-88v721zM469 616v723h88v-723h-88z" />
<glyph unicode="&#xa7;" vert-adv-y="2664" d="M721 676q0 74 56 145.5t167 75.5q-94 82 -132 155.5t-38 159.5q0 131 98.5 203t225.5 72q104 0 172.5 -51.5t68.5 -122t-71 -70.5q-27 0 -45.5 13.5t-18.5 35t13.5 41t13.5 31.5q0 31 -40 52.5t-104 21.5q-123 0 -187 -63.5t-64 -145.5q0 -35 14 -69t66.5 -96.5 t134.5 -129t178 -127.5q170 -106 170 -246q0 -80 -62.5 -147.5t-154.5 -61.5q115 -94 144.5 -156.5t29.5 -132.5q0 -131 -99.5 -220t-219 -89t-198.5 61.5t-79 135.5q0 31 17.5 48t49 17t53 -22.5t21.5 -45t-8 -35.5t-8 -26q0 -29 38 -54.5t97 -25.5q92 0 174 59.5t82 151.5 q0 49 -36 106.5t-128 143.5t-223 172q-168 113 -168 236zM805 730q0 -44 33.5 -93t189.5 -160q52 -35 70 -49q57 -25 110.5 -25t85 39t31.5 86t-42 96.5t-149.5 126t-127.5 93.5q-25 4 -50 4q-70 0 -110.5 -37t-40.5 -81z" />
<glyph unicode="&#xa8;" vert-adv-y="2664" d="M651 1278q0 43 30 72.5t73 29.5t72.5 -29.5t29.5 -72.5t-29.5 -72.5t-72.5 -29.5t-73 29.5t-30 72.5zM1212 1278q0 43 30 72.5t73 29.5t72.5 -29.5t29.5 -72.5t-29.5 -72.5t-72.5 -29.5t-73 29.5t-30 72.5z" />
<glyph unicode="&#xa9;" horiz-adv-x="1556" vert-adv-y="2664" d="M70 676q0 301 208.5 504.5t499.5 203.5q299 0 505 -207.5t206 -500.5q0 -297 -208 -503t-503 -206q-184 0 -351 94.5t-262 257t-95 357.5zM131 676q0 -270 193.5 -458.5t453.5 -188.5q270 0 458.5 186.5t188.5 460.5q0 272 -188 459.5t-459 187.5q-266 0 -456.5 -188.5 t-190.5 -458.5zM319 670q0 199 140.5 331t343.5 132q102 0 201 -37q25 -8 38 -9q27 0 48 46h38l21 -281h-39q-74 236 -303 235q-147 0 -234.5 -103t-87.5 -286q0 -201 86 -306t246 -105q195 0 311 162l37 -21q-137 -203 -383 -203q-195 0 -329 129t-134 316z" />
<glyph unicode="&#xaa;" horiz-adv-x="532" vert-adv-y="2664" d="M37 1112q0 20 33.5 73.5t91 84t119.5 30.5q109 0 133 -45t24 -174v-170q0 -31 6.5 -44t24.5 -13t51 41l29 -14q-31 -98 -121 -99q-82 0 -96 72q-100 -74 -193 -74q-39 0 -63.5 21.5t-24.5 56.5q0 43 51.5 99.5t231.5 125.5q4 25 4 47q0 55 -20.5 87t-53.5 32 q-94 0 -114 -106q-4 -25 -22.5 -39t-45.5 -14q-45 0 -45 22zM166 891q0 -49 45 -49q49 0 117 61l6 139q-168 -78 -168 -151z" />
<glyph unicode="&#xab;" horiz-adv-x="747" vert-adv-y="2664" d="M12 403l310 396h59l-215 -393l225 -396h-49zM375 401l311 398h62l-222 -393l224 -394l-54 -2z" />
<glyph unicode="&#xac;" horiz-adv-x="1366" vert-adv-y="2664" d="M145 856v88h1076v-575h-88v487h-988z" />
<glyph unicode="&#xad;" horiz-adv-x="641" vert-adv-y="2664" d="M76 356v86h487v-86h-487z" />
<glyph unicode="&#xae;" horiz-adv-x="1556" vert-adv-y="2664" d="M70 676q0 301 208.5 504.5t499.5 203.5q299 0 505 -207.5t206 -500.5q0 -297 -208 -503t-503 -206q-184 0 -351 94.5t-262 257t-95 357.5zM131 676q0 -270 193.5 -458.5t453.5 -188.5q270 0 458.5 186.5t188.5 460.5q0 272 -188 459.5t-459 187.5q-266 0 -456.5 -188.5 t-190.5 -458.5zM375 248v33l47 4q31 4 43 34.5t12 98.5v522q0 125 -37 129l-55 6v37h387q137 0 217 -62.5t80 -160.5q0 -166 -221 -223l209 -297q31 -43 45 -58.5t31 -19.5l45 -12v-31h-185l-295 403h-75v-309q8 -39 35.5 -50t82.5 -11v-33h-366zM623 694h30 q121 0 187.5 49.5t66.5 133.5t-56 137t-144 53q-41 0 -84 -14v-359z" />
<glyph unicode="&#xaf;" horiz-adv-x="1024" vert-adv-y="2664" d="M-4 1522v102h1028v-102h-1028z" />
<glyph unicode="&#xb0;" vert-adv-y="2664" d="M184 1367q0 79 55.5 134t133.5 55q82 0 135 -54t53 -135t-53 -134t-135 -53t-135.5 54t-53.5 133zM227 1368.5q0 -61.5 42.5 -103.5t103.5 -42t103 42t42 103.5t-42 103t-103.5 41.5t-103.5 -41.5t-42 -103z" />
<glyph unicode="&#xb1;" vert-adv-y="2664" d="M408 -12h1232v-82h-1232v82zM408 727v82h575v514h82v-514h575v-82h-575v-514h-82v514h-575z" />
<glyph unicode="&#xb2;" horiz-adv-x="641" vert-adv-y="2664" d="M53 623l15 41q80 80 161 151q109 94 159 163t50 132q0 49 -39 86t-92 37q-61 0 -108 -38t-66 -108l-45 13q16 92 80.5 146t161.5 54q94 0 158.5 -53t64.5 -125q0 -100 -131 -209q-201 -168 -246 -215h264q45 0 58.5 11.5t36.5 64.5h49l-21 -149q-106 6 -248 6 q-76 0 -262 -8z" />
<glyph unicode="&#xb3;" horiz-adv-x="641" vert-adv-y="2664" d="M72 668q0 12 12 24.5t35 12.5q25 0 53 -19q72 -45 111 -45q68 0 121 55.5t53 126.5q0 61 -35 104.5t-88 43.5q-41 0 -94 -41l-25 33q96 61 141 103t45 79q0 39 -28.5 63.5t-77.5 24.5q-84 0 -152 -100l-37 16q66 152 222 151q74 0 122 -35.5t48 -78.5q0 -70 -117 -154 q88 -10 134 -57t46 -123q0 -102 -86 -174t-221 -72q-90 0 -136 19.5t-46 42.5z" />
<glyph unicode="&#xb4;" horiz-adv-x="681" vert-adv-y="2664" d="M244 983l143 205q76 106 137 106q23 0 40.5 -15t17.5 -36q0 -43 -80 -98l-236 -162h-22z" />
<glyph unicode="&#xb5;" horiz-adv-x="1089" vert-adv-y="2664" d="M152 -381q0 53 8 152q18 209 18 432q0 174 -8 288.5t-8 159.5q0 84 18.5 122t71.5 38q74 0 74 -86q0 -70 -47 -205q-45 -125 -46 -215q0 -106 63.5 -172.5t147.5 -66.5q113 0 172.5 112.5t59.5 538.5q0 45 12 61.5t49 16.5q47 0 65.5 -9.5t14.5 -35.5q-35 -166 -35 -351 q0 -174 39 -242.5t90 -68.5q52 0 109 72l20 -13l-18 -47q-25 -63 -60.5 -98t-74.5 -35q-51 0 -96.5 43t-49.5 256q-23 -143 -99.5 -221t-172.5 -78q-78 0 -141.5 45t-98.5 129q18 -244 58 -387q29 -109 28 -170q0 -98 -82 -98q-49 0 -65 30.5t-16 102.5z" />
<glyph unicode="&#xb6;" horiz-adv-x="917" vert-adv-y="2664" d="M-14 981q0 172 119.5 273.5t330.5 101.5h496v-56h-133v-1742h-74v1742h-186v-1742h-72v1042q-481 6 -481 381z" />
<glyph unicode="&#xb7;" vert-adv-y="2664" d="M911 609q0 44 34 77t77 33q47 0 82 -32t35 -79t-33 -79.5t-81 -32.5t-81 34.5t-33 78.5z" />
<glyph unicode="&#xb8;" horiz-adv-x="681" vert-adv-y="2664" d="M0 -346q0 18 11.5 32.5t27.5 14.5q23 0 53 -43q31 -43 64 -43q29 0 50 27.5t21 64.5q0 80 -94 119q61 74 133 188h33l-78 -125q78 -59 78 -141q0 -76 -51 -127t-125 -51q-51 0 -87 26.5t-36 57.5z" />
<glyph unicode="&#xb9;" horiz-adv-x="641" vert-adv-y="2664" d="M115 1145q80 53 209 155h53v-585q0 -23 6 -32t31 -13l59 -13v-36q-66 12 -149 12q-63 0 -144 -12v34l47 13q29 6 38 14t9 31v483l-139 -80zM334 -68l858 1371h74l-867 -1371h-65z" />
<glyph unicode="&#xba;" horiz-adv-x="681" vert-adv-y="2664" d="M37 1038q0 113 86 187.5t225 74.5q127 0 212 -78.5t85 -187.5q0 -100 -90 -177t-225 -77q-123 0 -208 77t-85 181zM162 1034q0 -102 47 -159.5t125 -57.5q84 0 135 60.5t51 162.5q0 96 -48 160t-130 64q-180 -1 -180 -230z" />
<glyph unicode="&#xbb;" horiz-adv-x="747" vert-adv-y="2664" d="M2 10l225 398l-225 391h55l322 -391l-320 -398h-57zM362 10l222 393l-222 396h48l329 -396l-313 -393h-64z" />
<glyph unicode="&#xbc;" horiz-adv-x="1665" vert-adv-y="2664" d="M115 1145q80 53 209 155h53v-585q0 -23 6 -32t31 -13l59 -13v-36q-66 12 -149 12q-63 0 -144 -12v34l47 13q29 6 38 14t9 31v483l-139 -80zM334 -68l858 1371h74l-867 -1371h-65zM1063 213q0 18 18 39l351 432h49v-434h127v-62h-127v-188h-105v188h-276q-37 0 -37 25z M1151 250h225v289z" />
<glyph unicode="&#xbd;" horiz-adv-x="1665" vert-adv-y="2664" d="M115 1145q80 53 209 155h53v-585q0 -23 6 -32t31 -13l59 -13v-36q-66 12 -149 12q-63 0 -144 -12v34l47 13q29 6 38 14t9 31v483l-139 -80zM334 -68l858 1371h74l-867 -1371h-65zM1061 -6l14 39q80 80 162 151q109 94 159 163t50 132q0 49 -39 86t-92 37 q-61 0 -108.5 -38t-65.5 -107l-45 12q16 92 80.5 146.5t160.5 54.5q94 0 159 -53.5t65 -124.5q0 -100 -131 -209q-201 -168 -246 -215h264q45 0 58.5 11t35.5 64h49l-20 -149q-98 6 -240 6q-121 0 -270 -6z" />
<glyph unicode="&#xbe;" horiz-adv-x="1685" vert-adv-y="2664" d="M72 668q0 12 12 24.5t35 12.5q25 0 53 -19q72 -45 111 -45q68 0 121 55.5t53 126.5q0 61 -35 104.5t-88 43.5q-41 0 -94 -41l-25 33q96 61 141 103t45 79q0 39 -28.5 63.5t-77.5 24.5q-84 0 -152 -100l-37 16q66 152 222 151q74 0 122 -35.5t48 -78.5q0 -70 -117 -154 q88 -10 134 -57t46 -123q0 -102 -86 -174t-221 -72q-90 0 -136 19.5t-46 42.5zM334 -68l858 1371h74l-867 -1371h-65zM1063 213q0 18 18 39l351 432h49v-434h127v-62h-127v-188h-105v188h-276q-37 0 -37 25zM1151 250h225v289z" />
<glyph unicode="&#xbf;" horiz-adv-x="747" vert-adv-y="2664" d="M33 -6q0 70 29.5 132t78.5 101t90 47.5t119 18.5q102 12 107 82l6 121h45l35 -326q-55 -23 -90 -23q-182 0 -263 -55t-81 -166q0 -121 83.5 -213t172.5 -92q37 0 106 19q37 10 68 10q84 0 84 -68q0 -84 -129 -84q-115 0 -223.5 75t-173 191.5t-64.5 229.5zM375 735 q0 43 29.5 73t72.5 30t73 -30t30 -73t-30 -72.5t-73 -29.5t-72.5 29.5t-29.5 72.5z" />
<glyph unicode="&#xc0;" horiz-adv-x="1386" vert-adv-y="2664" d="M-8 -4v33l129 10q68 6 94 76l459 1237h59l453 -1223q14 -35 26.5 -47t44.5 -23l113 -34v-31q-104 6 -268 6t-268 -6v31l135 20q39 6 54 14.5t15 24.5q0 12 -10 41l-166 457h-403l-164 -476q-6 -20 -6 -32q0 -16 12 -24.5t51 -10.5l144 -10v-33q-39 4 -252 4t-252 -4z M475 627h371l-191 528zM512 1665q0 20 17.5 35.5t39.5 15.5q63 0 138 -106l143 -205h-23l-235 162q-80 55 -80 98z" />
<glyph unicode="&#xc1;" horiz-adv-x="1386" vert-adv-y="2664" d="M-8 -4v33l129 10q68 6 94 76l459 1237h59l453 -1223q14 -35 26.5 -47t44.5 -23l113 -34v-31q-104 6 -268 6t-268 -6v31l135 20q39 6 54 14.5t15 24.5q0 12 -10 41l-166 457h-403l-164 -476q-6 -20 -6 -32q0 -16 12 -24.5t51 -10.5l144 -10v-33q-39 4 -252 4t-252 -4z M475 627h371l-191 528zM596 1405l143 205q76 106 138 106q23 0 40 -15t17 -36q0 -43 -80 -98l-236 -162h-22z" />
<glyph unicode="&#xc2;" horiz-adv-x="1386" vert-adv-y="2664" d="M-8 -4v33l129 10q68 6 94 76l459 1237h59l453 -1223q14 -35 26.5 -47t44.5 -23l113 -34v-31q-104 6 -268 6t-268 -6v31l135 20q39 6 54 14.5t15 24.5q0 12 -10 41l-166 457h-403l-164 -476q-6 -20 -6 -32q0 -16 12 -24.5t51 -10.5l144 -10v-33q-39 4 -252 4t-252 -4z M475 627h371l-191 528zM477 1405v31l189 325h59l190 -323l-4 -27l-223 219z" />
<glyph unicode="&#xc3;" horiz-adv-x="1386" vert-adv-y="2664" d="M-8 -4v33l129 10q68 6 94 76l459 1237h59l453 -1223q14 -35 26.5 -47t44.5 -23l113 -34v-31q-104 6 -268 6t-268 -6v31l135 20q39 6 54 14.5t15 24.5q0 12 -10 41l-166 457h-403l-164 -476q-6 -20 -6 -32q0 -16 12 -24.5t51 -10.5l144 -10v-33q-39 4 -252 4t-252 -4z M442 1405q-8 55 32 129t132 74q39 0 72 -14.5t86 -49.5q88 -57 131 -57q74 0 88 121h29q6 -94 -41 -149.5t-123 -55.5q-70 0 -154 61q-82 59 -133 60q-74 0 -90 -119h-29zM475 627h371l-191 528z" />
<glyph unicode="&#xc4;" horiz-adv-x="1386" vert-adv-y="2664" d="M-8 -4v33l129 10q68 6 94 76l459 1237h59l453 -1223q14 -35 26.5 -47t44.5 -23l113 -34v-31q-104 6 -268 6t-268 -6v31l135 20q39 6 54 14.5t15 24.5q0 12 -10 41l-166 457h-403l-164 -476q-6 -20 -6 -32q0 -16 12 -24.5t51 -10.5l144 -10v-33q-39 4 -252 4t-252 -4z M446 1491q0 37 25 62.5t59 25.5q37 0 62.5 -26.5t25.5 -59.5q0 -35 -25.5 -60.5t-60.5 -25.5q-33 0 -59.5 24.5t-26.5 59.5zM475 627h371l-191 528zM791 1491q0 37 24.5 62.5t58.5 25.5q37 0 63 -26.5t26 -59.5q0 -35 -25.5 -60.5t-60.5 -25.5q-33 0 -59.5 24.5t-26.5 59.5z " />
<glyph unicode="&#xc5;" horiz-adv-x="1386" vert-adv-y="2664" d="M-8 -4v33l129 10q68 6 94 76l451 1214q-59 14 -95 59.5t-36 100.5q0 68 49 117t116 49q68 0 117 -49.5t49 -116.5q0 -55 -33.5 -99t-91.5 -59l445 -1202q14 -35 26.5 -47t44.5 -23l113 -34v-31q-104 6 -268 6t-268 -6v31l135 20q39 6 54 14.5t15 24.5q0 12 -10 41 l-166 457h-403l-164 -476q-6 -20 -6 -32q0 -16 12 -24.5t51 -10.5l144 -10v-33q-39 4 -252 4t-252 -4zM475 627h371l-191 528z" />
<glyph unicode="&#xc6;" horiz-adv-x="1748" vert-adv-y="2664" d="M-127 -6v33l119 12q35 4 57.5 24.5t56.5 90.5l539 1085l-207 -2v51q170 -8 572 -8q391 0 559 8q-6 -55 -6 -155q0 -74 4 -140h-27q-39 111 -68.5 162t-62.5 67.5t-90 16.5h-313q-35 0 -47.5 -19.5t-12.5 -66.5v-475h342q39 0 53.5 11t22.5 48l33 131h30q-6 -121 -6 -231 q0 -111 6 -231h-38l-23 147q-8 53 -40 65.5t-114 12.5h-266v-506q0 -45 16.5 -62.5t69.5 -17.5h262q147 0 217 58.5t150 246.5h41q-41 -174 -55 -360q-270 10 -480 10q-348 0 -635 -10v39l185 14q41 4 51 17.5t10 50.5v512h-372l-207 -422q-39 -82 -39 -113q0 -35 61 -43 l158 -18v-31q-39 4 -264 4q-162 0 -242 -6zM428 670h350v471q0 57 -9 75.5t-34 18.5h-30z" />
<glyph unicode="&#xc7;" horiz-adv-x="1300" vert-adv-y="2664" d="M88 612q0 178 89 340t241.5 255t329.5 93q180 0 268 -16t170 -67q12 -98 10 -203h-39q-41 119 -138 181t-235 62q-215 0 -356 -177t-141 -457q0 -303 126 -457t373 -154q285 0 418 271h27q-23 -125 -64 -265q-113 -43 -256 -49l-49 -80q78 -61 78 -141q0 -78 -51 -128 t-125 -50q-53 0 -88 27.5t-35 60.5q0 16 12.5 29.5t24.5 13.5q20 0 55 -43q31 -43 68 -43q27 0 46 28.5t19 63.5q0 80 -92 119q57 71 100 143q-25 -2 -88 -2q-322 0 -510 177.5t-188 467.5z" />
<glyph unicode="&#xc8;" horiz-adv-x="1343" vert-adv-y="2664" d="M49 -6v35l148 10q35 2 48 14.5t13 57.5v1030q0 49 -11 70.5t-40 23.5l-150 14v37q166 -6 551 -6q389 0 551 6q-6 -63 -6 -151q0 -68 4 -134h-27q-45 113 -69.5 161t-45 62.5t-54.5 14.5h-476q-35 0 -47 -19.5t-12 -66.5v-471h461q35 0 51 11.5t25 49.5l26 144h41 q-6 -121 -6 -246q0 -123 6 -246h-24l-45 160q-14 45 -41 62.5t-80 17.5h-414v-510q0 -45 16.5 -62.5t69.5 -17.5h455q61 0 103 19.5t86 81t99 186.5h41q-45 -188 -51 -338q-254 6 -598 6t-598 -6zM530 1665q0 20 17.5 35.5t40.5 15.5q63 0 137 -106l143 -205h-22l-236 162 q-80 55 -80 98z" />
<glyph unicode="&#xc9;" horiz-adv-x="1343" vert-adv-y="2664" d="M49 -6v35l148 10q35 2 48 14.5t13 57.5v1030q0 49 -11 70.5t-40 23.5l-150 14v37q166 -6 551 -6q389 0 551 6q-6 -63 -6 -151q0 -68 4 -134h-27q-45 113 -69.5 161t-45 62.5t-54.5 14.5h-476q-35 0 -47 -19.5t-12 -66.5v-471h461q35 0 51 11.5t25 49.5l26 144h41 q-6 -121 -6 -246q0 -123 6 -246h-24l-45 160q-14 45 -41 62.5t-80 17.5h-414v-510q0 -45 16.5 -62.5t69.5 -17.5h455q61 0 103 19.5t86 81t99 186.5h41q-45 -188 -51 -338q-254 6 -598 6t-598 -6zM575 1405l123 178q88 129 158 129q25 0 42 -15.5t17 -31.5q0 -41 -141 -139 l-190 -131z" />
<glyph unicode="&#xca;" horiz-adv-x="1343" vert-adv-y="2664" d="M49 -6v35l148 10q35 2 48 14.5t13 57.5v1030q0 49 -11 70.5t-40 23.5l-150 14v37q166 -6 551 -6q389 0 551 6q-6 -63 -6 -151q0 -68 4 -134h-27q-45 113 -69.5 161t-45 62.5t-54.5 14.5h-476q-35 0 -47 -19.5t-12 -66.5v-471h461q35 0 51 11.5t25 49.5l26 144h41 q-6 -121 -6 -246q0 -123 6 -246h-24l-45 160q-14 45 -41 62.5t-80 17.5h-414v-510q0 -45 16.5 -62.5t69.5 -17.5h455q61 0 103 19.5t86 81t99 186.5h41q-45 -188 -51 -338q-254 6 -598 6t-598 -6zM477 1403v31l189 325h59l190 -323l-4 -27l-223 219z" />
<glyph unicode="&#xcb;" horiz-adv-x="1343" vert-adv-y="2664" d="M49 -6v35l148 10q35 2 48 14.5t13 57.5v1030q0 49 -11 70.5t-40 23.5l-150 14v37q166 -6 551 -6q389 0 551 6q-6 -63 -6 -151q0 -68 4 -134h-27q-45 113 -69.5 161t-45 62.5t-54.5 14.5h-476q-35 0 -47 -19.5t-12 -66.5v-471h461q35 0 51 11.5t25 49.5l26 144h41 q-6 -121 -6 -246q0 -123 6 -246h-24l-45 160q-14 45 -41 62.5t-80 17.5h-414v-510q0 -45 16.5 -62.5t69.5 -17.5h455q61 0 103 19.5t86 81t99 186.5h41q-45 -188 -51 -338q-254 6 -598 6t-598 -6zM465 1493q0 35 25.5 60.5t60.5 25.5t60.5 -25.5t25.5 -60.5t-25.5 -60.5 t-60.5 -25.5t-60.5 25.5t-25.5 60.5zM809 1493q0 35 25.5 60.5t60.5 25.5t60.5 -25.5t25.5 -60.5t-25.5 -60.5t-60.5 -25.5t-60.5 25.5t-25.5 60.5z" />
<glyph unicode="&#xcc;" horiz-adv-x="724" vert-adv-y="2664" d="M53 -8v49l180 10q31 4 41.5 14.5t10.5 45.5v1058q0 35 -11.5 49.5t-40.5 16.5l-180 18v33q23 -6 430 -6q121 0 193 6v-35l-180 -18q-29 -2 -40.5 -14.5t-11.5 -49.5v-1058q0 -35 10.5 -46.5t41.5 -13.5l180 -10v-49q-82 8 -311 8t-312 -8zM199 1665q0 20 17 35.5t40 15.5 q63 0 137 -106l144 -205h-23l-235 162q-80 55 -80 98z" />
<glyph unicode="&#xcd;" horiz-adv-x="724" vert-adv-y="2664" d="M53 -8v49l180 10q31 4 41.5 14.5t10.5 45.5v1058q0 35 -11.5 49.5t-40.5 16.5l-180 18v33q23 -6 430 -6q121 0 193 6v-35l-180 -18q-29 -2 -40.5 -14.5t-11.5 -49.5v-1058q0 -35 10.5 -46.5t41.5 -13.5l180 -10v-49q-82 8 -311 8t-312 -8zM223 1405l144 205 q76 106 137 106q23 0 40 -15t17 -36q0 -43 -80 -98l-235 -162h-23z" />
<glyph unicode="&#xce;" horiz-adv-x="724" vert-adv-y="2664" d="M53 -8v49l180 10q31 4 41.5 14.5t10.5 45.5v1058q0 35 -11.5 49.5t-40.5 16.5l-180 18v33q23 -6 430 -6q121 0 193 6v-35l-180 -18q-29 -2 -40.5 -14.5t-11.5 -49.5v-1058q0 -35 10.5 -46.5t41.5 -13.5l180 -10v-49q-82 8 -311 8t-312 -8zM147 1403v31l189 325h59 l191 -323l-4 -27l-224 219z" />
<glyph unicode="&#xcf;" horiz-adv-x="724" vert-adv-y="2664" d="M53 -8v49l180 10q31 4 41.5 14.5t10.5 45.5v1058q0 35 -11.5 49.5t-40.5 16.5l-180 18v33q23 -6 430 -6q121 0 193 6v-35l-180 -18q-29 -2 -40.5 -14.5t-11.5 -49.5v-1058q0 -35 10.5 -46.5t41.5 -13.5l180 -10v-49q-82 8 -311 8t-312 -8zM123 1493q0 35 25.5 60.5 t60.5 25.5t60.5 -25.5t25.5 -60.5t-25.5 -60.5t-60.5 -25.5t-60.5 25.5t-25.5 60.5zM467 1493q0 35 25.5 60.5t60.5 25.5t60.5 -25.5t25.5 -60.5t-25.5 -60.5t-60.5 -25.5t-60.5 25.5t-25.5 60.5z" />
<glyph unicode="&#xd0;" horiz-adv-x="1579" vert-adv-y="2664" d="M20 647q0 14 7 25h223v456q0 49 -12.5 70t-47.5 27l-139 24v33q131 -4 319.5 7t266.5 11q201 0 317.5 -22.5t220 -81.5t170 -138t103.5 -181.5t37 -217.5q0 -193 -106.5 -369.5t-276.5 -234t-330 -57.5l-332 8h-409v33l159 35q33 6 46.5 26.5t13.5 77.5v440h-223 q-6 14 -7 29zM418 227q0 -66 70.5 -122t203.5 -56q236 0 413 154.5t177 464.5q0 270 -184.5 425.5t-511.5 155.5q-111 0 -139.5 -21.5t-28.5 -99.5v-456h368q-6 -14 -6 -25q0 -10 6 -29h-368v-391z" />
<glyph unicode="&#xd1;" horiz-adv-x="1579" vert-adv-y="2664" d="M25 -6v33l112 20q70 12 89.5 28.5t19.5 61.5v893q0 94 -20.5 141.5t-78.5 55.5l-120 18v35h245q43 0 60.5 -10t48.5 -43l926 -1010l-21 922q-2 57 -19.5 73.5t-54.5 20.5l-176 20v33q57 -6 221 -6t222 6v-33l-86 -8q-35 -4 -43.5 -24.5t-6.5 -81.5l21 -1166h-49 l-1012 1086v-922q0 -51 12.5 -68.5t51.5 -21.5l188 -20v-33q-123 6 -264 6q-104 0 -266 -6zM537 1405q10 203 165 203q37 0 66 -11.5t92 -52.5q86 -57 133 -57q70 0 86 121h31q2 -96 -44 -150.5t-122 -54.5q-70 0 -153 61q-82 59 -134 60q-76 0 -90 -119h-30z" />
<glyph unicode="&#xd2;" horiz-adv-x="1599" vert-adv-y="2664" d="M94 627q0 279 199 476t532 197q283 0 479.5 -189t196.5 -472q0 -301 -194.5 -486.5t-509.5 -185.5q-313 0 -508 186.5t-195 473.5zM279 612q0 -244 146 -426t363 -182q260 0 396.5 160t136.5 463q0 283 -144.5 459t-379.5 176q-168 0 -288 -90.5t-175 -245t-55 -314.5z M657 1665q0 20 17.5 35.5t40.5 15.5q63 0 137 -106l143 -205h-22l-236 162q-80 55 -80 98z" />
<glyph unicode="&#xd3;" horiz-adv-x="1599" vert-adv-y="2664" d="M94 627q0 279 199 476t532 197q283 0 479.5 -189t196.5 -472q0 -301 -194.5 -486.5t-509.5 -185.5q-313 0 -508 186.5t-195 473.5zM279 612q0 -244 146 -426t363 -182q260 0 396.5 160t136.5 463q0 283 -144.5 459t-379.5 176q-168 0 -288 -90.5t-175 -245t-55 -314.5z M700 1405l144 205q76 106 137 106q23 0 40 -15t17 -36q0 -43 -80 -98l-235 -162h-23z" />
<glyph unicode="&#xd4;" horiz-adv-x="1599" vert-adv-y="2664" d="M94 627q0 279 199 476t532 197q283 0 479.5 -189t196.5 -472q0 -301 -194.5 -486.5t-509.5 -185.5q-313 0 -508 186.5t-195 473.5zM279 612q0 -244 146 -426t363 -182q260 0 396.5 160t136.5 463q0 283 -144.5 459t-379.5 176q-168 0 -288 -90.5t-175 -245t-55 -314.5z M604 1403v31l189 325h59l190 -323l-4 -27l-223 219z" />
<glyph unicode="&#xd5;" horiz-adv-x="1599" vert-adv-y="2664" d="M94 627q0 279 199 476t532 197q283 0 479.5 -189t196.5 -472q0 -301 -194.5 -486.5t-509.5 -185.5q-313 0 -508 186.5t-195 473.5zM279 612q0 -244 146 -426t363 -182q260 0 396.5 160t136.5 463q0 283 -144.5 459t-379.5 176q-168 0 -288 -90.5t-175 -245t-55 -314.5z M549 1405q-8 55 32 129t132 74q39 0 71.5 -14.5t85.5 -49.5q88 -57 131 -57q75 0 89 121h28q6 -94 -41 -149.5t-123 -55.5q-70 0 -153 61q-82 59 -133 60q-74 0 -90 -119h-29z" />
<glyph unicode="&#xd6;" horiz-adv-x="1599" vert-adv-y="2664" d="M94 627q0 279 199 476t532 197q283 0 479.5 -189t196.5 -472q0 -301 -194.5 -486.5t-509.5 -185.5q-313 0 -508 186.5t-195 473.5zM279 612q0 -244 146 -426t363 -182q260 0 396.5 160t136.5 463q0 283 -144.5 459t-379.5 176q-168 0 -288 -90.5t-175 -245t-55 -314.5z M592 1491q0 37 24.5 62.5t59.5 25.5q37 0 62.5 -26.5t25.5 -59.5q0 -35 -25.5 -60.5t-60.5 -25.5q-33 0 -59.5 24.5t-26.5 59.5zM936 1491q0 37 24.5 62.5t61.5 25.5t61.5 -24.5t24.5 -61.5t-24.5 -61.5t-61.5 -24.5q-33 0 -59.5 24.5t-26.5 59.5z" />
<glyph unicode="&#xd7;" vert-adv-y="2664" d="M422 74l545 540l-545 541l57 59l547 -542l545 542l55 -55l-543 -543l545 -542l-57 -60l-547 545l-545 -545z" />
<glyph unicode="&#xd8;" horiz-adv-x="1599" vert-adv-y="2664" d="M94 627q0 279 199 476t532 197q227 0 404 -126l149 178l41 -35l-147 -176q229 -193 229 -502q0 -301 -194.5 -486.5t-509.5 -185.5q-233 0 -414 111l-119 -144l-41 33l117 142q-119 90 -182.5 225t-63.5 293zM279 612q0 -235 135 -415l751 901q-143 164 -368 164 q-168 0 -288 -90.5t-175 -245t-55 -314.5zM449 156q145 -152 339 -152q260 0 396.5 160t136.5 463q0 254 -121 428z" />
<glyph unicode="&#xd9;" horiz-adv-x="1449" vert-adv-y="2664" d="M37 1253v33q135 -6 276 -6q203 0 277 6v-33l-129 -16q-37 -4 -52.5 -27.5t-15.5 -74.5v-732q0 -197 82 -283.5t268 -86.5q250 0 337 115.5t87 416.5v568q0 82 -84 98l-120 22v33q49 -6 208 -6q160 0 211 6v-33l-118 -26q-45 -8 -45 -94v-621q0 -287 -106.5 -416 t-362.5 -129q-250 0 -384.5 104.5t-134.5 301.5v768q0 49 -10 70.5t-39 25.5zM584 1665q0 20 17 35.5t40 15.5q63 0 137 -106l144 -205h-23l-235 162q-80 55 -80 98z" />
<glyph unicode="&#xda;" horiz-adv-x="1449" vert-adv-y="2664" d="M37 1253v33q135 -6 276 -6q203 0 277 6v-33l-129 -16q-37 -4 -52.5 -27.5t-15.5 -74.5v-732q0 -197 82 -283.5t268 -86.5q250 0 337 115.5t87 416.5v568q0 82 -84 98l-120 22v33q49 -6 208 -6q160 0 211 6v-33l-118 -26q-45 -8 -45 -94v-621q0 -287 -106.5 -416 t-362.5 -129q-250 0 -384.5 104.5t-134.5 301.5v768q0 49 -10 70.5t-39 25.5zM629 1405l143 205q76 106 137 106q23 0 40.5 -15t17.5 -36q0 -43 -80 -98l-236 -162h-22z" />
<glyph unicode="&#xdb;" horiz-adv-x="1449" vert-adv-y="2664" d="M37 1253v33q135 -6 276 -6q203 0 277 6v-33l-129 -16q-37 -4 -52.5 -27.5t-15.5 -74.5v-732q0 -197 82 -283.5t268 -86.5q250 0 337 115.5t87 416.5v568q0 82 -84 98l-120 22v33q49 -6 208 -6q160 0 211 6v-33l-118 -26q-45 -8 -45 -94v-621q0 -287 -106.5 -416 t-362.5 -129q-250 0 -384.5 104.5t-134.5 301.5v768q0 49 -10 70.5t-39 25.5zM530 1403v31l189 325h59l191 -323l-4 -27l-224 219z" />
<glyph unicode="&#xdc;" horiz-adv-x="1449" vert-adv-y="2664" d="M37 1253v33q135 -6 276 -6q203 0 277 6v-33l-129 -16q-37 -4 -52.5 -27.5t-15.5 -74.5v-732q0 -197 82 -283.5t268 -86.5q250 0 337 115.5t87 416.5v568q0 82 -84 98l-120 22v33q49 -6 208 -6q160 0 211 6v-33l-118 -26q-45 -8 -45 -94v-621q0 -287 -106.5 -416 t-362.5 -129q-250 0 -384.5 104.5t-134.5 301.5v768q0 49 -10 70.5t-39 25.5zM516 1491q0 37 24.5 62.5t59.5 25.5q37 0 62.5 -26.5t25.5 -59.5q0 -35 -25.5 -60.5t-60.5 -25.5q-33 0 -59.5 24.5t-26.5 59.5zM860 1491q0 37 24.5 62.5t61.5 25.5t61.5 -24.5t24.5 -61.5 t-24.5 -61.5t-61.5 -24.5q-33 0 -59.5 24.5t-26.5 59.5z" />
<glyph unicode="&#xdd;" horiz-adv-x="1343" vert-adv-y="2664" d="M-16 1253v33q41 -6 276 -6q190 0 275 6v-33l-129 -18q-55 -8 -56 -39q0 -10 8 -22l369 -566l352 508q31 45 31 72q0 37 -51 45l-131 20v33q18 -6 217 -6q168 0 215 8v-33l-70 -16q-61 -8 -174 -166l-330 -463q-16 -23 -22 -53.5t-6 -95.5v-336q0 -60 80 -72l153 -22v-37 q-236 6 -311 6q-172 0 -307 -6v33l153 24q35 6 57.5 25.5t22.5 44.5v342q0 47 -37 102l-364 547q-82 123 -131 129zM594 1405l143 205q76 106 137 106q23 0 40.5 -15t17.5 -36q0 -43 -80 -98l-236 -162h-22z" />
<glyph unicode="&#xde;" horiz-adv-x="1153" vert-adv-y="2664" d="M47 1243v43q84 -6 281 -6q162 0 295 6v-43l-121 -18q-53 -8 -65.5 -25.5t-12.5 -58.5v-158q94 20 211 21q268 0 365.5 -118t97.5 -255q0 -160 -114 -273.5t-271 -113.5q-141 0 -289 86v-180q0 -53 19.5 -71t76.5 -26l121 -18v-41q-106 6 -301 6q-123 0 -258 -6v41l113 20 q43 8 55 23.5t12 64.5v1002q0 37 -14.5 55.5t-48.5 22.5zM424 375q121 -59 203 -60q129 0 211 86t82 215q0 141 -98.5 234.5t-254.5 93.5q-86 0 -143 -12v-557z" />
<glyph unicode="&#xdf;" horiz-adv-x="1024" vert-adv-y="2664" d="M14 -6v35l78 16q45 10 60.5 31.5t15.5 85.5v825q2 123 111.5 218t263.5 95q147 0 251.5 -92t104.5 -209q0 -102 -83 -173.5t-200 -98.5q-20 -6 -20 -12q0 -12 78 -41q289 -113 289 -365q0 -160 -93.5 -260t-216.5 -100q-49 0 -85 23.5t-36 56.5q0 25 14.5 41t39.5 16 q37 0 76 -39q31 -31 63 -31q16 0 29 9q25 31 40 107.5t15 160.5q0 90 -19.5 151.5t-76 122t-135.5 99.5q-51 25 -52 49q0 23 54 45q76 31 120.5 102.5t44.5 155.5q0 98 -58 163.5t-155 65.5q-119 0 -186 -66.5t-67 -185.5v-833q0 -49 12 -70.5t61 -36.5l86 -26v-35 q-125 6 -233 6q-76 0 -191 -6z" />
<glyph unicode="&#xe0;" horiz-adv-x="831" vert-adv-y="2664" d="M88 524.5q0 22.5 53.5 110.5t133 135t155.5 47q127 0 184.5 -50t57.5 -161v-416q0 -47 3 -72.5t21.5 -38.5t36.5 -13q45 0 84 63l27 -14q-59 -147 -164 -148q-63 0 -99 36t-36 103q-113 -86 -167 -112.5t-136 -26.5q-133 0 -133 102.5t117.5 211t322.5 184.5v139 q0 66 -37 108t-103.5 42t-117.5 -48.5t-62 -134.5q-4 -35 -33.5 -59.5t-53 -24.5t-39 7.5t-15.5 30zM240 1243q0 18 17 33.5t40 15.5q61 0 154 -129l124 -174l-10 -10l-180 121q-145 100 -145 143zM250 131q0 -39 25.5 -64.5t72.5 -25.5t124 56.5t77 111.5v211 q-131 -51 -215 -135t-84 -154z" />
<glyph unicode="&#xe1;" horiz-adv-x="831" vert-adv-y="2664" d="M88 524.5q0 22.5 53.5 110.5t133 135t155.5 47q127 0 184.5 -50t57.5 -161v-416q0 -47 3 -72.5t21.5 -38.5t36.5 -13q45 0 84 63l27 -14q-59 -147 -164 -148q-63 0 -99 36t-36 103q-113 -86 -167 -112.5t-136 -26.5q-133 0 -133 102.5t117.5 211t322.5 184.5v139 q0 66 -37 108t-103.5 42t-117.5 -48.5t-62 -134.5q-4 -35 -33.5 -59.5t-53 -24.5t-39 7.5t-15.5 30zM250 131q0 -39 25.5 -64.5t72.5 -25.5t124 56.5t77 111.5v211q-131 -51 -215 -135t-84 -154zM303 983l143 205q76 106 138 106q23 0 40 -15t17 -36q0 -43 -80 -98 l-235 -162h-23z" />
<glyph unicode="&#xe2;" horiz-adv-x="831" vert-adv-y="2664" d="M88 518q0 29 53.5 117t133 135t155.5 47q127 0 184.5 -50t57.5 -161v-416q0 -47 3 -72.5t21.5 -38.5t36.5 -13q45 0 84 63l27 -14q-59 -147 -164 -148q-63 0 -99 36t-36 103q-113 -86 -167 -112.5t-136 -26.5q-133 0 -133 109q0 96 117.5 204.5t322.5 184.5v139 q0 66 -37 108t-98 42q-72 0 -123 -48.5t-62 -134.5q-4 -35 -33.5 -59.5t-62.5 -24.5q-14 0 -29.5 7.5t-15.5 23.5zM242 975v33l190 323h57l191 -323v-31l-227 223zM250 131q0 -39 25.5 -64.5t64.5 -25.5q55 0 132 56.5t77 111.5v211q-131 -51 -215 -135t-84 -154z" />
<glyph unicode="&#xe3;" horiz-adv-x="831" vert-adv-y="2664" d="M88 518q0 29 53.5 117t133 135t155.5 47q127 0 184.5 -50t57.5 -161v-416q0 -47 3 -72.5t21.5 -38.5t36.5 -13q45 0 84 63l27 -14q-59 -147 -164 -148q-63 0 -99 36t-36 103q-113 -86 -167 -112.5t-136 -26.5q-133 0 -133 109q0 96 117.5 204.5t322.5 184.5v139 q0 66 -37 108t-98 42q-72 0 -123 -48.5t-62 -134.5q-4 -35 -33.5 -59.5t-62.5 -24.5q-14 0 -29.5 7.5t-15.5 23.5zM147 1034q10 203 166 203q37 0 66 -11.5t92 -51.5q86 -57 133 -58q70 0 86 121h31q2 -96 -44 -150.5t-122 -54.5q-70 0 -154 62q-82 59 -133 59 q-76 0 -90 -119h-31zM250 131q0 -39 25.5 -64.5t64.5 -25.5q55 0 132 56.5t77 111.5v211q-131 -51 -215 -135t-84 -154z" />
<glyph unicode="&#xe4;" horiz-adv-x="831" vert-adv-y="2664" d="M88 518q0 29 53.5 117t133 135t155.5 47q127 0 184.5 -50t57.5 -161v-416q0 -47 3 -72.5t21.5 -38.5t36.5 -13q45 0 84 63l27 -14q-59 -147 -164 -148q-63 0 -99 36t-36 103q-113 -86 -167 -112.5t-136 -26.5q-133 0 -133 109q0 96 117.5 204.5t322.5 184.5v139 q0 66 -37 108t-98 42q-72 0 -123 -48.5t-62 -134.5q-4 -35 -33.5 -59.5t-62.5 -24.5q-14 0 -29.5 7.5t-15.5 23.5zM193 1141q0 37 24.5 62.5t58.5 25.5q37 0 63 -26.5t26 -59.5q0 -35 -25.5 -60.5t-60.5 -25.5q-33 0 -59.5 24.5t-26.5 59.5zM250 131q0 -39 25.5 -64.5 t64.5 -25.5q55 0 132 56.5t77 111.5v211q-131 -51 -215 -135t-84 -154zM537 1141q0 37 24.5 62.5t61.5 25.5t61.5 -24.5t24.5 -61.5t-24.5 -61.5t-61.5 -24.5q-33 0 -59.5 24.5t-26.5 59.5z" />
<glyph unicode="&#xe5;" horiz-adv-x="831" vert-adv-y="2664" d="M88 518q0 29 53.5 117t133 135t155.5 47q127 0 184.5 -50t57.5 -161v-416q0 -47 3 -72.5t21.5 -38.5t36.5 -13q45 0 84 63l27 -14q-59 -147 -164 -148q-63 0 -99 36t-36 103q-113 -86 -167 -112.5t-136 -26.5q-133 0 -133 109q0 96 117.5 204.5t322.5 184.5v139 q0 66 -37 108t-98 42q-72 0 -123 -48.5t-62 -134.5q-4 -35 -33.5 -59.5t-62.5 -24.5q-14 0 -29.5 7.5t-15.5 23.5zM250 131q0 -39 25.5 -64.5t64.5 -25.5q55 0 132 56.5t77 111.5v211q-131 -51 -215 -135t-84 -154zM285 1094q0 68 49 117t115 49q68 0 115.5 -48.5 t47.5 -115.5q0 -70 -47.5 -118t-115.5 -48t-116 48t-48 116zM330 1096q0 -49 34.5 -85t84.5 -36q49 0 83.5 34.5t34.5 86.5q0 49 -34.5 83.5t-83.5 34.5t-84 -34.5t-35 -83.5z" />
<glyph unicode="&#xe6;" horiz-adv-x="1193" vert-adv-y="2664" d="M88 518q0 37 51 120t131 131t156 48q53 0 111.5 -30.5t91.5 -79.5q49 47 117.5 78.5t123.5 31.5q121 0 203 -82t82 -205h-504q-4 -37 -4 -96q0 -96 13.5 -178t89 -136t143.5 -54q35 0 105.5 23.5t164.5 109.5v-60q-139 -172 -332 -172q-90 0 -156.5 39t-139.5 125 q-193 -164 -318 -164q-51 0 -82 34t-31 87q0 111 115 195t299 182v139q0 162 -129 162q-61 0 -107 -54.5t-57 -140.5q-4 -41 -32.5 -65.5t-59.5 -24.5q-45 0 -45 37zM238 154q0 -39 24.5 -63.5t63.5 -24.5q51 0 121.5 52t70.5 118v180q-281 -127 -280 -262zM657 578h328 q33 16 33 45q0 57 -49 103t-109 46q-78 0 -136.5 -53t-66.5 -141z" />
<glyph unicode="&#xe7;" horiz-adv-x="854" vert-adv-y="2664" d="M92 403q0 203 112.5 308.5t330.5 105.5q113 0 183 -32.5t70 -88.5q0 -29 -19 -51t-52 -22q-53 0 -115 61q-68 68 -141 68q-88 0 -154.5 -95.5t-66.5 -238.5q0 -164 86 -260.5t202 -96.5q133 0 271 121l2 -63q-119 -125 -240 -144l-53 -86q78 -61 78 -141 q0 -78 -51.5 -128t-124.5 -50q-53 0 -88 27.5t-35 60.5q0 16 12 29.5t25 13.5q20 0 55 -43q31 -43 67 -43q27 0 46.5 28.5t19.5 63.5q0 80 -92 119q51 61 102 143q-14 -2 -55 -2q-160 0 -267.5 125t-107.5 311z" />
<glyph unicode="&#xe8;" horiz-adv-x="854" vert-adv-y="2664" d="M86 389q0 180 111.5 304t283.5 124q131 0 218.5 -83t93.5 -220h-572q-6 -41 -6 -82q0 -160 87 -260t237 -100q72 0 131 28.5t129 94.5l8 -50q-143 -178 -371 -178q-150 0 -250 121t-100 301zM231 557h373q55 0 55 43t-40.5 106.5t-138 63.5t-163.5 -58.5t-86 -154.5z M285 1243q0 18 17 33.5t40 15.5q61 0 154 -129l125 -174l-11 -10l-180 121q-145 100 -145 143z" />
<glyph unicode="&#xe9;" horiz-adv-x="854" vert-adv-y="2664" d="M86 389q0 180 111.5 304t283.5 124q131 0 218.5 -83t93.5 -220h-572q-6 -41 -6 -82q0 -160 87 -260t237 -100q72 0 131 28.5t129 94.5l8 -50q-143 -178 -371 -178q-150 0 -250 121t-100 301zM231 557h373q55 0 55 43t-40.5 106.5t-138 63.5t-163.5 -58.5t-86 -154.5z M283 983l143 205q76 106 137 106q23 0 40.5 -15t17.5 -36q0 -43 -80 -98l-236 -162h-22z" />
<glyph unicode="&#xea;" horiz-adv-x="854" vert-adv-y="2664" d="M86 389q0 180 111.5 304t283.5 124q131 0 218.5 -83t93.5 -220h-572q-6 -41 -6 -82q0 -160 87 -260t237 -100q72 0 131 28.5t129 94.5l8 -50q-143 -178 -371 -178q-150 0 -250 121t-100 301zM231 557h373q55 0 55 43t-40.5 106.5t-138 63.5t-163.5 -58.5t-86 -154.5z M231 975v33l189 323h59l191 -323v-31l-228 223z" />
<glyph unicode="&#xeb;" horiz-adv-x="854" vert-adv-y="2664" d="M86 381q0 188 111.5 312t283.5 124q131 0 218.5 -83t93.5 -220h-572q-6 -41 -6 -82q0 -160 87 -260t237 -100q72 0 131 28.5t129 94.5l8 -50q-143 -178 -371 -178q-150 0 -250 121t-100 293zM217 1141q0 37 24.5 62.5t59.5 25.5q37 0 62.5 -26.5t25.5 -59.5 q0 -35 -25.5 -60.5t-60.5 -25.5q-33 0 -59.5 24.5t-26.5 59.5zM231 557h373q55 0 55 43t-40.5 106.5t-145.5 63.5q-90 0 -156 -58.5t-86 -154.5zM561 1141q0 37 24.5 62.5t61.5 25.5t61.5 -24.5t24.5 -61.5t-24.5 -61.5t-61.5 -24.5q-33 0 -59.5 24.5t-26.5 59.5z" />
<glyph unicode="&#xec;" horiz-adv-x="468" vert-adv-y="2664" d="M4 -8v33l115 22q63 12 63 74v481q0 49 -24.5 71.5t-98.5 39.5v28q145 37 213 148h33v-774q0 -31 9.5 -45.5t35.5 -20.5l105 -24v-33q-63 8 -225 8t-226 -8zM72 1245q0 16 17 32.5t40 16.5q61 0 156 -131l125 -174l-11 -10l-180 121q-147 98 -147 145z" />
<glyph unicode="&#xed;" horiz-adv-x="468" vert-adv-y="2664" d="M4 -8v33l115 22q63 12 63 74v481q0 49 -24.5 71.5t-98.5 39.5v28q145 37 213 148h33v-774q0 -31 9.5 -45.5t35.5 -20.5l105 -24v-33q-63 8 -225 8t-226 -8zM125 979l143 205q76 106 138 106q23 0 40 -15t17 -36q0 -43 -80 -98l-236 -162h-22z" />
<glyph unicode="&#xee;" horiz-adv-x="468" vert-adv-y="2664" d="M4 -8v33l115 22q63 12 63 74v481q0 49 -24.5 71.5t-98.5 39.5v28q145 37 213 148h33v-774q0 -31 9.5 -45.5t35.5 -20.5l105 -24v-33q-63 8 -226 8q-162 0 -225 -8zM20 975v33l191 323h57l191 -323v-31l-228 223z" />
<glyph unicode="&#xef;" horiz-adv-x="468" vert-adv-y="2664" d="M-2 1141q0 37 24.5 62.5t59.5 25.5q37 0 62.5 -26.5t25.5 -59.5q0 -35 -25.5 -60.5t-60.5 -25.5q-33 0 -59.5 24.5t-26.5 59.5zM4 -8v33l115 22q63 12 63 74v481q0 49 -24.5 71.5t-98.5 39.5v28q145 37 213 148h33v-774q0 -31 9.5 -45.5t35.5 -20.5l105 -24v-33 q-63 8 -226 8q-162 0 -225 -8zM342 1141q0 37 24.5 62.5t61.5 25.5t61.5 -24.5t24.5 -61.5t-24.5 -61.5t-61.5 -24.5q-33 0 -59.5 24.5t-26.5 59.5z" />
<glyph unicode="&#xf0;" horiz-adv-x="1067" vert-adv-y="2664" d="M92 389q0 182 126 304t300 122q162 0 283 -115q-37 231 -240 394l-272 -181l-33 45l260 170q-94 70 -221 121l29 60q137 -39 274 -125l188 123l29 -45l-168 -113q348 -264 348 -672q0 -233 -127 -370.5t-336 -137.5q-188 0 -314 121t-126 299zM248 375 q0 -174 75.5 -270.5t206.5 -96.5q147 0 225.5 108.5t78.5 319.5q-1 86 -13 180q-123 160 -282 160q-139 0 -215 -103.5t-76 -297.5z" />
<glyph unicode="&#xf1;" horiz-adv-x="1044" vert-adv-y="2664" d="M37 -6v33l108 20q41 6 41 62v405q0 63 -25.5 86t-90.5 33v37q131 31 206 184h33v-184q78 68 172 107.5t166 39.5q236 0 236 -280v-408q0 -39 10 -59.5t41 -26.5l90 -16v-33q-106 6 -213 6q-106 0 -213 -6v33l113 16q45 6 45 80v403q0 90 -51.5 143.5t-139.5 53.5 q-131 0 -256 -125v-498q0 -33 49 -45l121 -28v-33q-76 6 -221 6t-221 -6zM268 1034q10 203 166 203q37 0 65.5 -11.5t92.5 -51.5q86 -57 133 -58q70 0 86 121h31q2 -96 -44 -150.5t-122 -54.5q-70 0 -154 62q-82 59 -133 59q-76 0 -90 -119h-31z" />
<glyph unicode="&#xf2;" horiz-adv-x="1044" vert-adv-y="2664" d="M80 391.5q0 186.5 125 306t320.5 119.5t316.5 -126t121 -304t-128 -299t-327 -121q-178 0 -303 119t-125 305.5zM227 375q0 -170 80 -269.5t209 -99.5t214 104.5t85 278.5t-80 281.5t-216 107.5t-214 -102t-78 -301zM350 1243q0 18 17.5 33.5t40.5 15.5q61 0 153 -129 l125 -174l-10 -10l-180 121q-145 100 -146 143z" />
<glyph unicode="&#xf3;" horiz-adv-x="1044" vert-adv-y="2664" d="M80 391.5q0 186.5 125 306t320.5 119.5t316.5 -126t121 -304t-128 -299t-327 -121q-178 0 -303 119t-125 305.5zM227 375q0 -170 80 -269.5t209 -99.5t214 104.5t85 278.5t-80 281.5t-216 107.5t-214 -102t-78 -301zM307 983l144 205q76 106 137 106q23 0 40 -15t17 -36 q0 -43 -80 -98l-235 -162h-23z" />
<glyph unicode="&#xf4;" horiz-adv-x="1044" vert-adv-y="2664" d="M80 395q0 182 125 302t327 120q188 0 309.5 -126t121.5 -312q0 -170 -128 -291t-327 -121q-178 0 -303 119t-125 309zM227 375q0 -170 80 -269.5t207 -99.5q131 0 216 104.5t85 276.5q0 176 -80 283.5t-211 107.5q-141 0 -219 -102t-78 -301zM330 975v33l190 323h58 l190 -323v-31l-227 223z" />
<glyph unicode="&#xf5;" horiz-adv-x="1044" vert-adv-y="2664" d="M80 395q0 182 125 302t327 120q188 0 309.5 -126t121.5 -312q0 -170 -128 -291t-327 -121q-178 0 -303 119t-125 309zM227 375q0 -170 80 -269.5t207 -99.5q131 0 216 104.5t85 276.5q0 176 -80 283.5t-211 107.5q-141 0 -219 -102t-78 -301zM270 1034q10 203 166 203 q37 0 65.5 -11.5t92.5 -51.5q86 -57 133 -58q70 0 86 121h31q2 -96 -44 -150.5t-122 -54.5q-70 0 -154 62q-82 59 -133 59q-76 0 -90 -119h-31z" />
<glyph unicode="&#xf6;" horiz-adv-x="1044" vert-adv-y="2664" d="M80 395q0 182 125 302t327 120q188 0 309.5 -126t121.5 -312q0 -170 -128 -291t-327 -121q-178 0 -303 119t-125 309zM227 375q0 -170 80 -269.5t207 -99.5q131 0 216 104.5t85 276.5q0 176 -80 283.5t-211 107.5q-141 0 -219 -102t-78 -301zM295 1141q0 37 24.5 62.5 t59.5 25.5q37 0 62.5 -26.5t25.5 -59.5q0 -35 -25.5 -60.5t-60.5 -25.5q-33 0 -59.5 24.5t-26.5 59.5zM639 1141q0 37 24.5 62.5t61.5 25.5t61.5 -24.5t24.5 -61.5t-24.5 -61.5t-61.5 -24.5q-33 0 -59.5 24.5t-26.5 59.5z" />
<glyph unicode="&#xf7;" vert-adv-y="2664" d="M322 571v82h1407v-82h-1407zM922 174q0 43 29.5 71.5t72.5 28.5t72.5 -28.5t29.5 -71.5t-29.5 -72.5t-72.5 -29.5t-72.5 29.5t-29.5 72.5zM922 1053q0 43 29.5 72.5t72.5 29.5t72.5 -29.5t29.5 -72.5t-29.5 -73t-72.5 -30t-72.5 30t-29.5 73z" />
<glyph unicode="&#xf8;" horiz-adv-x="1044" vert-adv-y="2664" d="M80 395q0 182 125 302t327 120q143 0 259 -80l92 109l28 -29l-90 -104q141 -131 142 -334q0 -170 -128 -291t-327 -121q-143 0 -254 78l-86 -100l-29 22l84 101q-143 125 -143 327zM227 375q1 -140 56 -238l452 535q-82 106 -211 106q-141 0 -219 -102.5t-78 -300.5z M305 106q80 -100 209 -100q131 0 216 104.5t85 276.5q0 148 -57 250z" />
<glyph unicode="&#xf9;" horiz-adv-x="1003" vert-adv-y="2664" d="M33 752v28h262v-528q0 -98 33.5 -139t128.5 -41q139 0 256 104v494q0 39 -31 52t-158 26v32h322v-602q0 -70 21.5 -85t121.5 -19l2 -31l-278 -74v156q-90 -78 -164 -118t-148 -40q-102 0 -168.5 76t-66.5 201v428q0 37 -21.5 50t-111.5 30zM299 1243q0 18 17.5 33.5 t39.5 15.5q61 0 154 -129l125 -174l-10 -10l-181 121q-145 100 -145 143z" />
<glyph unicode="&#xfa;" horiz-adv-x="1003" vert-adv-y="2664" d="M33 752v28h262v-528q0 -98 33.5 -139t128.5 -41q139 0 256 104v494q0 39 -31 52t-158 26v32h322v-602q0 -70 21.5 -85t121.5 -19l2 -31l-278 -74v156q-90 -78 -164 -118t-148 -40q-102 0 -168.5 76t-66.5 201v428q0 37 -21.5 50t-111.5 30zM315 983l144 205 q76 106 137 106q23 0 40 -15t17 -36q0 -43 -80 -98l-235 -162h-23z" />
<glyph unicode="&#xfb;" horiz-adv-x="1003" vert-adv-y="2664" d="M33 752v28h262v-528q0 -98 33.5 -139t128.5 -41q139 0 256 104v494q0 39 -31 52t-158 26v32h322v-602q0 -70 21.5 -85t121.5 -19l2 -31l-278 -74v156q-90 -78 -164 -118t-148 -40q-102 0 -168.5 76t-66.5 201v428q0 37 -21.5 50t-111.5 30zM307 975v33l191 323h57 l190 -323v-31l-227 223z" />
<glyph unicode="&#xfc;" horiz-adv-x="1003" vert-adv-y="2664" d="M33 752v28h262v-528q0 -98 33.5 -139t128.5 -41q139 0 256 104v494q0 39 -31 52t-158 26v32h322v-602q0 -70 21.5 -85t121.5 -19l2 -31l-278 -74v156q-90 -78 -164 -118t-148 -40q-102 0 -168.5 76t-66.5 201v428q0 37 -21.5 50t-111.5 30zM244 1142q0 36 24.5 61.5 t60.5 25.5t61.5 -26.5t25.5 -60.5t-25.5 -59.5t-60.5 -25.5q-33 0 -59.5 24.5t-26.5 60.5zM588 1142q0 36 24.5 61.5t61.5 25.5t61.5 -24.5t24.5 -61.5t-24.5 -61.5t-61.5 -24.5q-33 0 -59.5 24.5t-26.5 60.5z" />
<glyph unicode="&#xfd;" horiz-adv-x="854" vert-adv-y="2664" d="M6 745v33q129 -10 205 -10q121 0 207 10v-33l-125 -24q-31 -6 -31 -29q0 -8 6 -26l207 -584l191 528q10 27 10 49q0 49 -37 58l-115 28v33q92 -10 174 -10q72 0 174 10v-33l-65 -18q-29 -8 -49.5 -33.5t-48.5 -103.5l-347 -914q-37 -96 -88 -147t-106 -51q-88 0 -88 65 q0 74 76 74q27 0 63 -8q16 -4 27 -4q16 0 26.5 11t45 71.5t61.5 132t27 96.5q0 35 -21 88l-250 662q-16 47 -53 57zM328 983l143 205q76 106 137 106q23 0 40.5 -15t17.5 -36q0 -43 -80 -98l-236 -162h-22z" />
<glyph unicode="&#xfe;" horiz-adv-x="1044" vert-adv-y="2664" d="M25 -492l81 17q33 6 44.5 21.5t11.5 47.5v1502q0 61 -23.5 85.5t-101.5 45.5v22q74 10 201 80h49v-635q156 109 317 109q158 0 262.5 -110.5t104.5 -278.5q0 -186 -123 -307t-311 -121q-100 -1 -250 65v-454q0 -37 19.5 -48.5t49.5 -17.5l123 -25v-34q-31 6 -321 6 q-80 0 -133 -6v36zM287 176q29 -70 84 -105.5t161 -35.5q127 0 212 88t85 221q0 164 -90 262.5t-239 98.5q-125 0 -213 -84v-445z" />
<glyph unicode="&#xff;" horiz-adv-x="854" vert-adv-y="2664" d="M6 758v33q129 -10 205 -11q121 0 207 11v-33l-125 -25q-31 -6 -31 -28q0 -8 6 -27l207 -584l191 529q10 27 10 49q0 49 -37 57l-115 29v33q92 -10 174 -11q72 0 174 11v-33l-65 -19q-29 -8 -49.5 -33.5t-48.5 -103.5l-347 -913q-35 -96 -86 -145.5t-108 -49.5 q-88 0 -88 66q0 74 76 73q27 0 63 -8q16 -4 27 -4q16 0 27.5 10.5t46 70.5t60.5 132t26 94q0 35 -21 88l-250 662q-16 47 -53 57zM197 1143q0 35 25.5 60.5t60.5 25.5t60.5 -25.5t25.5 -60.5t-26 -60.5t-60 -25.5q-35 0 -60.5 25.5t-25.5 60.5zM541 1143q0 35 25.5 60.5 t60.5 25.5t60.5 -25.5t25.5 -60.5t-25.5 -60.5t-60.5 -25.5t-60.5 25.5t-25.5 60.5z" />
<glyph unicode="&#x152;" horiz-adv-x="1921" vert-adv-y="2664" d="M94 618q0 168 79 332t219 257t323 93q68 0 147 -10l78 -10h659q137 0 197 10q-6 -61 -6 -147q0 -66 4 -129h-31q-47 113 -70.5 156.5t-42 55t-53.5 11.5h-368q-35 0 -47.5 -19.5t-12.5 -66.5v-457h342q51 0 82 17.5t37 46.5l27 141h37q-6 -123 -6 -244q0 -117 6 -239h-35 l-31 153q-8 43 -34.5 61.5t-86.5 18.5h-338v-522q0 -45 16.5 -62.5t69.5 -17.5h287q61 0 103.5 19.5t86.5 81t99 186.5h41q-45 -176 -51 -342q-88 8 -240 8h-729q-72 -33 -156 -33q-236 0 -419 181.5t-183 469.5zM303 649q0 -305 113.5 -473t285.5 -168q139 0 220.5 80 t81.5 217v705q0 137 -63.5 195.5t-197.5 58.5q-215 0 -327.5 -155t-112.5 -460z" />
<glyph unicode="&#x153;" horiz-adv-x="1429" vert-adv-y="2664" d="M78 377q0 203 119.5 321.5t300.5 118.5q163 1 272 -112q137 113 264 112q119 0 217.5 -85t112.5 -220h-518q-6 -43 -6 -121q0 -168 27.5 -226.5t77.5 -85t116 -26.5q76 0 137.5 26.5t134.5 88.5l19 -31q-131 -170 -338 -170q-76 0 -135.5 30t-124.5 93 q-82 -66 -138.5 -94.5t-150.5 -28.5q-156 0 -271.5 122t-115.5 288zM231 418q0 -195 67 -300.5t194 -105.5q225 0 225 387q0 176 -66.5 275.5t-179.5 99.5q-117 0 -178.5 -90t-61.5 -266zM848 563h299q27 0 46 22.5t19 49.5q0 51 -53 95t-127 44q-70 0 -120 -54.5 t-64 -156.5z" />
<glyph unicode="&#x178;" horiz-adv-x="1343" vert-adv-y="2664" d="M-16 1253v33q41 -6 276 -6q190 0 275 6v-33l-129 -18q-55 -8 -56 -39q0 -10 8 -22l369 -566l352 508q31 45 31 72q0 37 -51 45l-131 20v33q18 -6 217 -6q168 0 215 8v-33l-70 -16q-61 -8 -174 -166l-330 -463q-16 -23 -22 -53.5t-6 -95.5v-336q0 -60 80 -72l153 -22v-37 q-236 6 -311 6q-172 0 -307 -6v33l153 24q35 6 57.5 25.5t22.5 44.5v342q0 47 -37 102l-364 547q-82 123 -131 129zM463 1493q0 35 25.5 60.5t60.5 25.5t60.5 -25.5t25.5 -60.5t-25.5 -60.5t-60.5 -25.5t-60.5 25.5t-25.5 60.5zM807 1493q0 35 25.5 60.5t60.5 25.5 t60.5 -25.5t25.5 -60.5t-25.5 -60.5t-60.5 -25.5t-60.5 25.5t-25.5 60.5z" />
<glyph unicode="&#x2c6;" horiz-adv-x="681" vert-adv-y="2664" d="M147 975v31l189 325h59l191 -323l-4 -27l-224 219z" />
<glyph unicode="&#x2dc;" horiz-adv-x="681" vert-adv-y="2664" d="M98 1034q-8 55 32 129t132 74q39 0 72 -14.5t86 -48.5q88 -57 131 -58q74 0 88 121h29q6 -94 -41 -149.5t-123 -55.5q-70 0 -154 62q-82 59 -133 59q-74 0 -90 -119h-29z" />
<glyph unicode="&#x2000;" horiz-adv-x="880" vert-adv-y="0" />
<glyph unicode="&#x2001;" horiz-adv-x="1761" vert-adv-y="0" />
<glyph unicode="&#x2002;" horiz-adv-x="880" vert-adv-y="0" />
<glyph unicode="&#x2003;" horiz-adv-x="1761" vert-adv-y="0" />
<glyph unicode="&#x2004;" horiz-adv-x="587" vert-adv-y="0" />
<glyph unicode="&#x2005;" horiz-adv-x="440" vert-adv-y="0" />
<glyph unicode="&#x2006;" horiz-adv-x="293" vert-adv-y="0" />
<glyph unicode="&#x2007;" horiz-adv-x="293" vert-adv-y="0" />
<glyph unicode="&#x2008;" horiz-adv-x="220" vert-adv-y="0" />
<glyph unicode="&#x2009;" horiz-adv-x="352" vert-adv-y="0" />
<glyph unicode="&#x200a;" horiz-adv-x="97" vert-adv-y="0" />
<glyph unicode="&#x2010;" horiz-adv-x="641" vert-adv-y="2664" d="M78 356v88h485v-88h-485z" />
<glyph unicode="&#x2011;" horiz-adv-x="641" vert-adv-y="2664" d="M78 356v88h485v-88h-485z" />
<glyph unicode="&#x2012;" horiz-adv-x="641" vert-adv-y="2664" d="M78 356v88h485v-88h-485z" />
<glyph unicode="&#x2013;" vert-adv-y="2664" d="M602 586v59h899v-59h-899z" />
<glyph unicode="&#x2014;" vert-adv-y="2664" d="M0 573v62h2048v-62h-2048z" />
<glyph unicode="&#x2018;" vert-adv-y="2664" d="M1448 1282q0 111 118.5 233.5t151.5 122.5q12 0 25.5 -13t13.5 -23.5t-31 -30.5q-158 -115 -157 -199q0 -43 49 -61q66 -25 65 -86q0 -39 -24.5 -70t-75.5 -31t-93 44t-42 114z" />
<glyph unicode="&#x2019;" vert-adv-y="2664" d="M309 1115q0 13 27 36q178 139 178 229q0 43 -43 60q-66 25 -65 88q0 45 29.5 77.5t76.5 32.5q55 0 96 -47t41 -113.5t-50 -152.5t-141 -164t-120 -78q-10 0 -19.5 9.5t-9.5 22.5z" />
<glyph unicode="&#x201a;" horiz-adv-x="448" vert-adv-y="2664" d="M96 -309q86 43 136.5 100t50.5 113q0 66 -64 65l-35 -2q-37 0 -60.5 22.5t-23.5 55.5q0 37 31 66.5t80 29.5q63 0 119.5 -51t56.5 -135q0 -111 -96.5 -200.5t-194.5 -112.5v49z" />
<glyph unicode="&#x201c;" vert-adv-y="2664" d="M1262 1282q0 113 119.5 234.5t150.5 121.5q12 0 25.5 -13t13.5 -23.5t-31 -30.5q-158 -115 -158 -199q0 -43 50 -61q66 -25 65 -86q0 -39 -24.5 -70t-77 -31t-93 44t-40.5 114zM1579 1282q0 113 119.5 234.5t150.5 121.5q12 0 25.5 -13t13.5 -23.5t-30 -30.5 q-158 -115 -158 -199q0 -43 49 -61q66 -25 66 -86q0 -39 -25 -70t-77 -31t-93 44t-41 114z" />
<glyph unicode="&#x201d;" vert-adv-y="2664" d="M174 1134.5q0 12.5 25 34.5q172 131 172 220q0 41 -43 57q-61 25 -62 82q0 41 29 75.5t76 34.5q53 0 92 -46t39 -110.5t-52.5 -150.5t-139.5 -157.5t-109 -71.5q-8 0 -17.5 10t-9.5 22.5zM487 1128q0 23 25 41q172 133 172 220q0 41 -41 57q-61 25 -61 88q0 43 28.5 73.5 t71.5 30.5q55 0 93 -48t38 -110.5t-47 -143.5t-135 -157.5t-117 -76.5q-8 0 -17.5 7t-9.5 19z" />
<glyph unicode="&#x201e;" horiz-adv-x="917" vert-adv-y="2664" d="M66 -317q203 94 202 200q0 33 -18.5 51.5t-75.5 36.5q-94 27 -94 82q0 94 102 94q78 0 134.5 -62t56.5 -155q0 -86 -85 -167.5t-222 -114.5v35zM532 -319q197 94 197 198q0 76 -90 90q-98 16 -98 74q0 41 24.5 71.5t81.5 30.5q74 0 129 -57t55 -143t-57.5 -168 t-241.5 -131v35z" />
<glyph unicode="&#x2022;" horiz-adv-x="724" vert-adv-y="2664" d="M113 678q0 102 73.5 176t175.5 74t177 -74t75 -176q0 -104 -73.5 -178t-178.5 -74q-104 0 -176.5 74t-72.5 178z" />
<glyph unicode="&#x2026;" vert-adv-y="2664" d="M225 618q0 43 30 73t73 30t72.5 -29.5t29.5 -73t-29.5 -73t-72.5 -29.5t-73 29.5t-30 72.5zM922 618q0 43 29.5 73t72.5 30t72.5 -29.5t29.5 -73t-29.5 -73t-72.5 -29.5t-72.5 29.5t-29.5 72.5zM1618 618q0 43 29.5 73t72.5 30t73 -29.5t30 -73t-30 -73t-73 -29.5 t-72.5 29.5t-29.5 72.5z" />
<glyph unicode="&#x202f;" horiz-adv-x="352" vert-adv-y="0" />
<glyph unicode="&#x2039;" horiz-adv-x="405" vert-adv-y="2664" d="M14 408l318 397h57l-217 -397l223 -396h-57z" />
<glyph unicode="&#x203a;" horiz-adv-x="405" vert-adv-y="2664" d="M8 16l223 394l-215 399h56l319 -401l-325 -392h-58z" />
<glyph unicode="&#x205f;" horiz-adv-x="440" vert-adv-y="0" />
<glyph unicode="&#x20ac;" horiz-adv-x="1458" vert-adv-y="2664" d="M113 514l20 84l100 2q0 53 3 76l-123 -2l20 84l117 2q57 244 238.5 392t404.5 148q180 0 268 -16t170 -67q12 -98 10 -203h-38q-41 119 -138.5 181t-234.5 62q-182 0 -316.5 -132t-171.5 -363l836 14l-25 -88l-819 -10q-2 -23 -2 -76l797 10l-25 -88l-768 -8 q43 -504 496 -504q285 0 418 271h26q-23 -125 -63 -265q-131 -51 -381 -51q-287 0 -472.5 144.5t-219.5 402.5h-127z" />
<glyph unicode="&#x2122;" horiz-adv-x="2004" vert-adv-y="2664" d="M31 1079l20 201h727l23 -201h-33l-27 80q-8 25 -57 43.5t-111 18.5h-75v-580q0 -113 32 -119l74 -12v-37h-375v37l66 12q35 6 35 119v580h-76q-145 0 -168 -70l-23 -72h-32zM870 473v37l60 4q53 4 53 127v465q0 76 -13.5 101.5t-45.5 29.5l-54 6v37h285l275 -571l264 571 h278v-37l-57 -6q-31 -4 -42 -28.5t-11 -100.5v-467q0 -61 9 -90t36 -33l65 -8v-37h-397v37l59 4q59 4 60 125v491l-308 -657h-30l-309 649v-481q0 -123 55 -127l74 -4v-37h-306z" />
<glyph unicode="&#x25fc;" horiz-adv-x="788" vert-adv-y="1576" d="M0 0v788h788v-788h-788z" />
<glyph unicode="&#xfb01;" horiz-adv-x="1110" vert-adv-y="2664" d="M90 -2v39l96 12q29 4 41.5 16.5t12.5 49.5v501l-144 -4v35l88 33q18 6 31.5 25.5t15.5 37.5q37 365 188.5 479.5t321.5 114.5q80 0 137.5 -15t57.5 -67q0 -29 -20.5 -50t-59.5 -21q-53 0 -117 37q-68 39 -135 39q-113 0 -178.5 -103.5t-67.5 -443.5h340q105 0 207 145h27 v-745q0 -37 8 -48.5t39 -15.5l90 -14v-37q-76 2 -213 2q-63 0 -217 -4v39l115 14q27 4 38 16.5t11 49.5v528h-441v-530q0 -37 8.5 -48.5t41.5 -15.5l114 -14v-37q-74 2 -237 2q-135 0 -199 -2z" />
<glyph unicode="&#xfb02;" horiz-adv-x="1110" vert-adv-y="2664" d="M90 -2v37l96 12q27 4 38.5 14.5t11.5 51.5v544l-138 7v32l86 27q35 10 39 41q35 270 145.5 412.5t262.5 142.5q80 0 180 -39l63 57h31v-1226q0 -37 11.5 -48.5t41.5 -15.5l93 -14v-35q-72 2 -215 2q-129 0 -201 -4v37l98 14q29 4 39 18.5t10 47.5v569h-424v-571 q0 -37 9.5 -47.5t44.5 -16.5l92 -14v-35q-106 2 -320 2q-43 0 -94 -2zM354 846q0 -49 4 -98h424v397q0 23 -64.5 69t-117.5 46q-55 0 -117.5 -41t-95.5 -140.5t-33 -232.5z" />
</font>
</defs>
</svg>
